<svg version="1.1" xmlns="http://www.w3.org/2000/svg" width="1024" height="1024">

<path d="M606,307c2.46-13.79,15.22-28.02,17.89-43.59c5.1-29.8,1.15-52.89-12.89-79.41c-5.03-9.49-11.7-17.48-15.44-27.82c-1.76-4.88-1.2-11.74,1.44-16.18c-20.63,0-13.2,50.24-27,51c-5.76,.32-10.29-10.44-10.7-14.95c-1.59-17.61,2.92-29.25,4.62-46.31C567.42,94.76,548.72,60.69,520,41c-7.65-5.24-18.14-14-28-14c17.33,44.56,11.4,80.28-24,114c-4.72-13.54-5.67-25.31-1-39c-7.37,2.59-14.23,9.97-19,16c-29.69,37.57,2.7,85.3-7,95c-9.96-7.21-13.26-15.78-17-27c-.67,0-1.33,0-2,0c-24.77,53.35-24.05,70.9,2,123c4.27,1.42,1.78,1.89,4,4c4.76,4.53,41.15,20,47,20c1,0,2,0,3,0c-13.51-20.27-28.36-39.7-24.86-66.26c1.09-8.26,6.29-18.02,5.86-25.74c1.67-.33,3.33-.67,5-1c.33-1,.67-2,1-3c6.59,.98,9.11,7.04,15,9c2.33-2.33,4.49-5.03,5-8.4c2.61-17.17-5.52-31.52-.36-50.31c5.34-19.43,21.19-27.4,29.36-43.29c4.33,6.49-2.4,29.65,1.25,40.31c10.04,29.43,34.44,35.6,33.75,70.69c14.52-14.52,29.79-15.75,34-41c4.02,4.02,4.25,11.82,6,17c13.5,39.93-4.51,68.3-28,98c9.97-5.17,36.07-19.02,45-22Z" fill="#F77A03"/>
<path d="M561,329c23.49-29.7,41.5-58.07,28-98c-1.75-5.18-1.98-12.98-6-17c-4.21,25.25-19.48,26.48-34,41c.69-35.09-23.71-41.26-33.75-70.69c-3.65-10.66,3.08-33.82-1.25-40.31c-8.17,15.89-24.02,23.86-29.36,43.29c-5.16,18.79,2.97,33.14,.36,50.31c-.51,3.37-2.67,6.07-5,8.4c-5.89-1.96-8.41-8.02-15-9c-.33,1-.67,2-1,3c-1.67,.33-3.33,.67-5,1c.43,7.72-4.77,17.48-5.86,25.74C449.64,293.3,464.49,312.73,478,333c-1,0-2,0-3,0c5.77,3.85,12.67,3.96,19,6c26.02,8.38,42.45,.11,67-10Z" fill="#E0D299"/>
<path d="M424,309c-7.62,11.43-5.08,32.72,2,45c-7.6,11.39-2.68,29.38-.58,42.77c1.48,9.49,11.86,15.3,10.58,25.23c-.13,.99-2.58,2.89-3,4c-2.24,5.89,4.47,25.87,6.81,32.07c3.13,8.34,10.36,5.92,11.19,13.93c8.27,79.79,17.21,160.85,19.1,240.87c1.33,56.53,3.24,113.09,5.01,169.56c.57,18.04-3.37,66.77,2.92,81.11c10.19,23.23,63.48,25.47,75.22,3.4c5.06-9.51,2.88-23.67,2.8-34.3c-.52-68.57,3.9-137.01,4.88-205.43c1.2-83.83,8.89-169.75,19.07-253.21c3.1-1.03,6.35-2.23,7.75-5.48c6.38-14.8,6.75-37.45,9.62-53.22c1.03-5.62,5.67-7.64,7.17-12.49c2.59-8.41,2.91-22.9,3.54-31.93c.47-6.79-3.29-15.36-2.95-19.71c1.03-13.57,12.82-32.22,.87-44.17c-8.93,2.98-35.03,16.83-45,22c-24.55,10.11-40.98,18.38-67,10c-6.33-2.04-13.23-2.15-19-6c-5.85,0-42.24-15.47-47-20c-2.22-2.11,.27-2.58-4-4Zm3,11c9.99,0,46.49,25,63,25c4.81,2.4,10.2,2.34,15,5c-24.24,7.71-63.54,30.1-74.28-4.79c-2.16-7.01-6.29-18.07-3.72-25.21Zm140,14c6.15-3.19,28.35-15.65,33-11c-7.27,3.38-13.31,8.01-21,11c0,.67,0,1.33,0,2c5.11-1.28,13,2.05,13-5c1.33-.33,2.67-.67,4-1c2.13,6.39-4.03,13.37-11,13c-2.15,4.29-.91,7.3-6,9c-.33,1.67-.67,3.33-1,5c-33.59,11.2-53.68,40.32-91.62,22c-4.69-2.26-9.7-1.07-14.38-4c.33,.33,.67,.67,1,1c-4.04,0-7.08-.08-10-3c-1.33-.67-2.67-1.33-4-2c35.83-11.94,71.75-25.2,108-37ZM430,375c.12-4.28-1.36-7.91,0-12c26.05,12.09,50.93,30.15,80,35c-3.63,2.33-6.77,2.16-11,2c-17.11,11.41-38.99,8.69-57.18,1.66c-2.02-.79-7.53-2-8.82-3.66c-1.89-2.44-3.1-19.43-3-23Zm139,5c8.57-6.8,21.38-13.54,31-19c1.36,4.4,.62,8.56,0,13c-.33-1.33-.67-2.67-1-4c-2.27,0-3.13,.57-4.17,2.69c-3.32,6.79-.48,16.54-5.84,24.01c-2.84,3.95-10.96,5.16-12.99,8.3c-1.82,2.82-.39,4.13-4.25,6.13C547.19,423.8,520.6,432.03,497,444c-12.78,6.49-31.98,5.79-44,13c1,.67,2,1.33,3,2c-2.67,0-5.33,0-8,0c-2.77-6.28-7-19.21-7-26c-.33-1.33-.67-2.67-1-4c10.5-7,42.35-13.42,56.24-18.24c23.85-8.28,50.28-24.12,72.76-30.76Zm-68,82c6.49-1.26,13.41-3.94,20-2c.16,39.16-2.91,77.82-3.22,116.73c-.04,4.98,2.22,9.05,2.22,13.27c2.66-8.72,.35-19.19,.95-28.25c2.27-33.87,4.18-66.61,4.05-100.75c2.25,.75,7.9,2.74,9,5c4.68,9.6-2.18,114.39-2,134c3.44-12.62,2.15-30.15,3.05-43.41c1.93-28.37,7.59-58.23,6.95-86.59c4.09,1.36,7.97,3.43,12,5c.5,29.83-6.56,61.74-10.26,91.66C540.2,595.27,539.88,624.1,540,653c-.33,0-.67,0-1,0c.11,56.97-2.19,112.88-4.12,169.42C533.3,868.72,540.8,919.76,532,965c-2.33,.33-4.67,.67-7,1c.16-73.3-3.77-147.04-1.09-220.31c1.58-43.33,8.41-85.91,8.09-129.69c0-2.62-.31-4.51-1-7c0,1.67,0,3.33,0,5c-.67,0-1.33,0-2,0c-.33,.67-.67,1.33-1,2c.25,45.6-6.05,89.95-8.09,135.22c-3.31,73.6,.03,149,.09,222.78c-5.32,.07-10.9,.7-16-1c-2.93-.63-5.36-1.59-8-3c-15.51-6.95-12.4-18.31-12.16-32.45c.59-34.45-2.22-70.05-2.92-104.63C478.46,712.73,473.54,593.21,459,474c3.19-2.13,5.27-2.5,9-3c3.74,11.22,5.27,31,5,43c.33,0,.67,0,1,0c-.15-7.82,1.13-15.16,1-23c.33-17.02-5.25-28.4,20-27c0,1.67,0,3.33,0,5c.33,0,.67,0,1,0c0-2,0-4,0-6c1.67-.33,3.33-.67,5-1Z" fill="#48301A"/>
<path d="M490,345c-16.51,0-53.01-25-63-25c0,2.33,0,4.67,0,7c18.02,2.85,37.35,25.16,58,20c.33,.67,.67,1.33,1,2c1-.33,2-.67,3-1c-.33-.33-.67-.67-1-1c.67-.33,1.33-.67,2-1c0-.33,0-.67,0-1Z" fill="#714B2A"/>
<g fill="#5F4834">
<path d="M490,345c0,.33,0,.67,0,1c-.67,.33-1.33,.67-2,1c.33,.33,.67,.67,1,1c-1,.33-2,.67-3,1c-.33-.67-.67-1.33-1-2c-20.65,5.16-39.98-17.15-58-20c0-2.33,0-4.67,0-7c-2.57,7.14,1.56,18.2,3.72,25.21c10.74,34.89,50.04,12.5,74.28,4.79c-4.8-2.66-10.19-2.6-15-5Z"/>
<path d="M463,373c2.92,2.92,5.96,3,10,3c-.33-.33-.67-.67-1-1c4.68,2.93,9.69,1.74,14.38,4c37.94,18.32,58.03-10.8,91.62-22c.33-1.67,.67-3.33,1-5c5.09-1.7,3.85-4.71,6-9c6.97,.37,13.13-6.61,11-13c-1.33,.33-2.67,.67-4,1c0,7.05-7.89,3.72-13,5c0-.67,0-1.33,0-2c7.69-2.99,13.73-7.62,21-11c-4.65-4.65-26.85,7.81-33,11c0,1,0,2,0,3c-1,0-2,0-3,0c0,.67,0,1.33,0,2c.67,.33,1.33,.67,2,1c-23.75,12.79-76.25,33-103,33Z"/>
<path d="M539,653c.33,0,.67,0,1,0c-.12-28.9,.2-57.73,3.74-86.34c3.7-29.92,10.76-61.83,10.26-91.66c-4.03-1.57-7.91-3.64-12-5c.64,28.36-5.02,58.22-6.95,86.59c-.9,13.26,.39,30.79-3.05,43.41c-.18-19.61,6.68-124.4,2-134c-1.1-2.26-6.75-4.25-9-5c.13,34.14-1.78,66.88-4.05,100.75c-.6,9.06,1.71,19.53-.95,28.25c2.91,8.74,6.04,16.76,7,26c.33,0,.67,0,1,0c.33-.67,.67-1.33,1-2c.67,0,1.33,0,2,0c0-1.67,0-3.33,0-5c.69,2.49,1,4.38,1,7c1.25-4.29,1.08-8.59,1-13c2.02,7.14,1,15.61,1,23c.67-.33,1.33-.67,2-1c1.45,1.45,1.56,3.04,2,5c0-1.67,0-3.33,0-5c2.44,8.15,1.06,19.45,1,28Z"/>
</g>
<path d="M463,373c26.75,0,79.25-20.21,103-33c-.67-.33-1.33-.67-2-1c0-.67,0-1.33,0-2c1,0,2,0,3,0c0-1,0-2,0-3c-36.25,11.8-72.17,25.06-108,37c1.33,.67,2.67,1.33,4,2Z" fill="#714B2A"/>
<path d="M441,433c0,6.79,4.23,19.72,7,26c2.67,0,5.33,0,8,0c-1-.67-2-1.33-3-2c12.02-7.21,31.22-6.51,44-13c23.6-11.97,50.19-20.2,74.75-32.87c3.86-2,2.43-3.31,4.25-6.13c2.03-3.14,10.15-4.35,12.99-8.3c5.36-7.47,2.52-17.22,5.84-24.01c1.04-2.12,1.9-2.69,4.17-2.69c.33,1.33,.67,2.67,1,4c.62-4.44,1.36-8.6,0-13c-9.62,5.46-22.43,12.2-31,19c-6.52,15.76-110.61,53.79-128,53Z" fill="#5F4834"/>
<path d="M499,400c4.23,.16,7.37,.33,11-2c-29.07-4.85-53.95-22.91-80-35c-1.36,4.09,.12,7.72,0,12c.67-1,1.33-2,2-3c11.17,11.17,50.69,23.77,67,28Z" fill="#714B2A"/>
<path d="M499,400c-16.31-4.23-55.83-16.83-67-28c-.67,1-1.33,2-2,3c-.1,3.57,1.11,20.56,3,23c1.29,1.66,6.8,2.87,8.82,3.66c18.19,7.03,40.07,9.75,57.18-1.66Z" fill="#5F4834"/>
<g fill="#714B2A">
<path d="M441,433c17.39,.79,121.48-37.24,128-53c-22.48,6.64-48.91,22.48-72.76,30.76C482.35,415.58,450.5,422,440,429c.33,1.33,.67,2.67,1,4Z"/>
<path d="M520,590c0-4.22-2.26-8.29-2.22-13.27c.31-38.91,3.38-77.57,3.22-116.73c-6.59-1.94-13.51,.74-20,2c.72,41.79-5.58,83.25-4.13,125.42c.9,25.9,7.59,51.93,8.24,77.96c.99,39.92-2.71,79.1-3.23,118.68c-.45,34.61,2.47,68.26,3.26,102.52c.67,28.77-1.25,57.54-1.14,86.42c5.1,1.7,10.68,1.07,16,1c-.06-73.78-3.4-149.18-.09-222.78c2.04-45.27,8.34-89.62,8.09-135.22c-.33,0-.67,0-1,0c-.96-9.24-4.09-17.26-7-26Z"/>
<path d="M495,469c0-1.67,0-3.33,0-5c-25.25-1.4-19.67,9.98-20,27c4.33,14.87,2.8,36.94,3.99,52.71c2.81,37.41,9.36,75.8,9.01,113.29c-4.56-18.13-4.01-36.69-6-55c-3.18-29.23-6.37-58.68-9-88c.27-12-1.26-31.78-5-43c-3.73,.5-5.81,.87-9,3c14.54,119.21,19.46,238.73,21.92,358.92c.7,34.58,3.51,70.18,2.92,104.63c-.24,14.14-3.35,25.5,12.16,32.45c.67,0,1.33,0,2,0c-.32-33.48,2.36-66.83,2.13-100.54c-.23-32.88-3.08-65.83-2.24-99.08c.81-32.25,3.59-64.22,3.23-96.74c-.31-28.16-7.2-56.19-8.25-84.07c-1.12-29.88,2.19-58.83,3.26-88.35c.39-10.81-1.42-21.68-1.13-32.22Z"/>
<path d="M539,653c.06-8.55,1.44-19.85-1-28c0,1.67,0,3.33,0,5c-.44-1.96-.55-3.55-2-5c-.67,.33-1.33,.67-2,1c0-7.39,1.02-15.86-1-23c.08,4.41,.25,8.71-1,13c.32,43.78-6.51,86.36-8.09,129.69C521.23,818.96,525.16,892.7,525,966c2.33-.33,4.67-.67,7-1c8.8-45.24,1.3-96.28,2.88-142.58c1.93-56.54,4.23-112.45,4.12-169.42Z"/>
</g>
<g fill="#5F4834">
<path d="M504,973c-.11-28.88,1.81-57.65,1.14-86.42c-.79-34.26-3.71-67.91-3.26-102.52c.52-39.58,4.22-78.76,3.23-118.68c-.65-26.03-7.34-52.06-8.24-77.96c-1.45-42.17,4.85-83.63,4.13-125.42c-1.67,.33-3.33,.67-5,1c0,2,0,4,0,6c-.33,0-.67,0-1,0c-.29,10.54,1.52,21.41,1.13,32.22c-1.07,29.52-4.38,58.47-3.26,88.35c1.05,27.88,7.94,55.91,8.25,84.07c.36,32.52-2.42,64.49-3.23,96.74c-.84,33.25,2.01,66.2,2.24,99.08c.23,33.71-2.45,67.06-2.13,100.54c-.67,0-1.33,0-2,0c2.64,1.41,5.07,2.37,8,3Z"/>
<path d="M473,514c2.63,29.32,5.82,58.77,9,88c1.99,18.31,1.44,36.87,6,55c.35-37.49-6.2-75.88-9.01-113.29c-1.19-15.77,.34-37.84-3.99-52.71c.13,7.84-1.15,15.18-1,23c-.33,0-.67,0-1,0Z"/>
</g>
</svg>
