<svg version="1.1" xmlns="http://www.w3.org/2000/svg" width="1024" height="1024">

<path d="M445,163c11.55-10.22,48.55-14.35,63.81-14.13c26.45,.37,58.01,7.29,84.19,12.13c26.74,4.94,54.61,6.4,81,13c2,0,4,0,6,0c-9.06,5.37-33.37,8.97-45.56,13.94C613.36,196.52,598.49,212.68,580,225c-10.53,13.31-22.17,24.09-32.5,37.94c-9.08,12.17-15.45,25.73-23.62,38c-4.19,6.27-11.57,17.74-12.88,25.06c-7.23,18.6-14.83,36.66-20.69,55.63c-2.32,7.52-2.83,15.93-5.31,23.37c-3.52,26.13-8.02,51.25-9.09,77.64c-.56,13.96,1.3,27.57,1.09,41.36c2.06,7.62,4,20.16,4,28c5.47,19.53,8.56,38.57,15,58c6.14,18.53,18.62,34.34,25,52c-.33,.33-.67,.67-1,1c.51,9.1-11.92,55.92-18,62c-3.47,20.79-24.21,50.21-39,65c-6.38,8.07-61.47,57.02-69,58c-2.22,.29-52.92-24.68-57-28c-7.75,0-26.13-11.59-33.67-15.26C268.59,787.81,229.03,767.78,192,756c2.25-2.25,2.25-2.25,8-4c9.77-7.96,23.49-11.98,34.22-18.92c21.75-14.07,38.02-27.3,56.78-45.08c2.56-3.83,5.7-6.94,8-11c4.28-4.28,7.74-12.66,11-18c3.18-5.91,5.96-13.6,8-20c3.42-10.26,7.13-23.28,8-34c12.85-3.79,155.83,49.02,185,53c0-8.26-11.57-22.51-15-31c-8.35-20.65-18.79-44.86-21-67v-1c-13.3,0-33.57-8.14-46.42-12.06C400.97,538.53,371.31,535.03,344,526c-13.83-4.57-31.54-10.55-46-12c-6.04-18.12-13.33-66.45-8-85c-.53-38.41,18.38-127.9,43-157c7.61-15.22,18.41-29.77,29-43c9.44-12.24,28.87-35.95,43-42c9.27-9.27,27.61-20.34,40-24ZM546,281c7.82-23.46,48.57-58.36,69-72c31.33-20.92,75.7-36.9,113-24c121.69,42.1,134.52,210.42,108.06,317.53C831.93,519.24,828.29,538.6,820,554c-29.34,75.45-92.65,165.86-182.84,166.13c-31.01,.1-62.53-14.45-84-36.15C480.79,610.81,474,483.47,498.58,388.74C506.26,359.14,524.6,302.4,546,281ZM519,707c10.17,1.39,19.98,6.18,29.85,8.7c41,10.47,80.54,23.66,123.59,11.29C802.17,689.72,861.7,510.41,858.12,389.35C856.83,345.84,845.71,299.78,826,261c-9.18-18.07-20.27-38.07-35.14-51.86c-13.78-12.77-29.57-24.68-47.01-31.65c-33.63-13.44-78.23-14.98-114.37-20.49c-36.11-5.51-80.69-17.1-116.47-17.13c-143.57-.14-221.85,152.11-234.07,277.4c-2.1,21.61,.21,45.55,2.11,67.01c2.63,29.74,11.88,61.8,23.02,89.23c3.17,7.82,9.22,15.99,11.68,23.99c.66,2.13-.12,11.18-.75,13.5c-12.65,46.76-29.87,75.43-70,104c-11.06,7.87-23.97,12.56-35,20c-8.84,5.96-23.81,14.32-34,18c-.23,2.83-.61,4.95,1.75,6.98c6.44,5.53,53.38,24.27,64.42,28.69C277.2,802.68,318.11,820.07,351,838c10.49,5.72,30.76,19.07,41.94,20.88c6.27,1,16.58-9.77,21.69-13.23C457.57,816.56,511.7,760.56,519,707Z" fill="#535557"/>
<path d="M674,174c-26.39-6.6-54.26-8.06-81-13c-26.18-4.84-57.74-11.76-84.19-12.13c-15.26-.22-52.26,3.91-63.81,14.13c-2.07,2.07-5,3.09-5,6c-1,.33-2,.67-3,1c12.82,7.6,44.71,9.24,60.59,12.02C530.9,187.83,564.13,195.96,597,203c4.44,0,23.57-13.99,29.4-16.61c15.56-6.99,30.69-10.87,47.6-12.39Z" fill="#86898C"/>
<path d="M597,203c-32.87-7.04-66.1-15.17-99.41-20.98C481.71,179.24,449.82,177.6,437,170c1-.33,2-.67,3-1c0-2.91,2.93-3.93,5-6c-12.39,3.66-30.73,14.73-40,24c1.67,.33,3.33,.67,5,1c-1.33,4-35.48,36.11-42,44c32.86,8.85,67.55,13.15,100,22c20.88,5.7,46.09,5.71,66,14c7.78-10.37,28.65-41.22,40-45c5.75-8.63,16.32-12.62,23-20Z" fill="#A7A8AB"/>
<path d="M580,225c18.49-12.32,33.36-28.48,54.44-37.06c12.19-4.97,36.5-8.57,45.56-13.94c-2,0-4,0-6,0c-16.91,1.52-32.04,5.4-47.6,12.39C620.57,189.01,601.44,203,597,203c-6.68,7.38-17.25,11.37-23,20c3.75,2,3.75,2,6,2Z" fill="#CACBCD"/>
<g fill="#86898C">
<path d="M820,554c8.29-15.4,11.93-34.76,16.06-51.47C862.52,395.42,849.69,227.1,728,185c-37.3-12.9-81.67,3.08-113,24c-20.43,13.64-61.18,48.54-69,72c1,0,2,0,3,0c0,.67,0,1.33,0,2c-1.33,.33-2.67,.67-4,1c2.94,0,4-.38,4,3c9.69,0-5.78,22.04-8.28,25.65C527.7,331.49,517.77,360.73,512,383c2.6-2.6,3.69-6.64,5-10c3.28,.82,5.72,1.09,9,0c-2.27,19.7-12.16,39.37-14.05,59.54c-7.62,81.15,.15,177.71,72.89,229.01c7.9,5.57,17.18,8.42,25.57,12.64C633,685.56,697.47,678.79,712,657c-7.25,2.42-16.47,8.04-23,12c-11.13,6.74-36.67,9.49-49.72,9.11c-32.57-.94-67.34-24.29-85.28-50.11c-71.16-102.43-49.99-254.02,27.5-347c4.13-4.95,16.61-20.56,22.5-21c0,4.64,1.46,10.54-2,14c-.33-.33-.67-.67-1-1c0,2.62,.31,4.51,1,7c-90.2,74.52-114.47,286.79-10.24,359.1c25.4,17.62,53.42,21.73,82.78,13.94C774.83,626.43,810.58,495.92,810,405c7.58,7.58-3.7,22.2,5,28c1.51-1.51,2.94-1,5-1c-3.96,30.67-5.02,57.97-14.24,88.03C800.94,535.77,791.51,550.72,787,566c12.58-12.58,13.76-38.28,23-52c3.64-5.41,1.55-24.27,6.19-28.81c1.62-1.59,4.77-1.36,6.81-1.19c.33,1.33,.67,2.67,1,4c.67-1.33,1.33-2.67,2-4c.59,26.16-16.62,65.86-28.61,88.67c-17.19,32.7-35.37,62.42-63,87.64c-90.7,82.79-189.14,22.16-221.12-80.01c-14.3-45.69-17.86-95.85-12.09-143.56c1.81-14.98,7.35-30.03,8.82-44.74c-6.65,11.08-7.31,31.53-9.36,44.4c-14.85,93.21,10.12,211,99.24,256.67c24.14,12.37,59.24,12.37,84.12,1.93c23.73-9.96,53.83-28.01,68-50c3.39-5.26,10.54-10.93,14.6-16.38c13.33-17.9,42.42-62.13,45.4-83.62c3.5,0,3.12,.18,5,3c-.67,.67-1.33,1.33-2,2c2.16,1.08,3.31,2.31,5,4ZM760,277c14.6,12.12,22.39,31.1,30,48c43.95,97.58,6.38,265.83-94,316c-29.27,14.63-55.19,17.04-85.93,4.71c-13.72-5.5-23.99-15.33-34.07-25.71c-57.95-59.66-58.11-161.16-34.85-235.8c6.58-21.13,17.75-40.86,27.85-60.2c12.2-23.35,33.79-41.22,54-57c16.67-13.01,42.07-22.6,63.57-22.24c25.4,.44,46.91,6.47,65.78,24.63c3.07,2.95,6.2,3.26,7.65,7.61Z"/>
<path d="M520,663c.33-.33,.67-.67,1-1c-6.38-17.66-18.86-33.47-25-52c-6.44-19.43-9.53-38.47-15-58c0,2.33,0,4.67,0,7c-2,.33-4,.67-6,1c2.21,22.14,12.65,46.35,21,67c3.43,8.49,15,22.74,15,31c-29.17-3.98-172.15-56.79-185-53c-.87,10.72-4.58,23.74-8,34c13.04,2.17,27.52,7.51,40,12c31.83,11.44,65.07,17.93,96.63,29.42C465.06,684.21,494.53,697,504,697c.81-4.85,9.02-47.97,16-34Z"/>
</g>
<path d="M534,268c-19.91-8.29-45.12-8.3-66-14c-32.45-8.85-67.14-13.15-100-22c6.52-7.89,40.67-40,42-44c-1.67-.33-3.33-.67-5-1c-14.13,6.05-33.56,29.76-43,42c2,2,2,2,5,4c-3.01,6.46-33.59,51-36,51c-1.91-6.26,2-6.57,2-12c-24.62,29.1-43.53,118.59-43,157c-.07,3.87-.05,7.27,1,11c-.2-10.6,0-20.86,3-31c0-8.51,3.66-32.05,8-39c1.31-11.33,23.65-80.03,32-84c3.43-1.63,152.51,31.74,168,36c0,21.96-26.42,59.41-25,85c2,0,4,0,6,0c.33-.67,.67-1.33,1-2c.33,0,.67,0,1,0c2.48-7.44,2.99-15.85,5.31-23.37C496.17,362.66,503.77,344.6,511,326c-1.43-2.86-2.98-2.54-6-3c-2.8-8.4,23.42-45.43,29-55Z" fill="#CACBCD"/>

<g fill="#939495">
<path d="M760,277c-1.45-4.35-4.58-4.66-7.65-7.61c-18.87-18.16-40.38-24.19-65.78-24.63c-21.5-.36-46.9,9.23-63.57,22.24c-20.21,15.78-41.8,33.65-54,57c-10.1,19.34-21.27,39.07-27.85,60.2C517.89,458.84,518.05,560.34,576,620c10.08,10.38,20.35,20.21,34.07,25.71c30.74,12.33,56.66,9.92,85.93-4.71c100.38-50.17,137.95-218.42,94-316c-7.61-16.9-15.4-35.88-30-48ZM567,350c6.42-6.42,13.4-21.61,18.5-29.95C595.82,303.2,615.9,286.86,632,276c18.99-12.81,50.43-19.36,72.94-14.81C847.42,290,811.41,582.54,689.47,630.96c-17.66,7.01-37.04,9.53-55.47,5.04c-78.01-18.99-97.73-110.94-95.13-181.03c.93-25,8.03-53.62,16.33-77.04c3.18-8.96,10.17-19.06,11.8-27.93Z"/>
<path d="M820,554c-1.69-1.69-2.84-2.92-5-4c.67-.67,1.33-1.33,2-2c-1.88-2.82-1.5-3-5-3c-2.98,21.49-32.07,65.72-45.4,83.62c-4.06,5.45-11.21,11.12-14.6,16.38c-14.17,21.99-44.27,40.04-68,50c-24.88,10.44-59.98,10.44-84.12-1.93C510.76,647.4,485.79,529.61,500.64,436.4c2.05-12.87,2.71-33.32,9.36-44.4c-1.47,14.71-7.01,29.76-8.82,44.74c-5.77,47.71-2.21,97.87,12.09,143.56c31.98,102.17,130.42,162.8,221.12,80.01c27.63-25.22,45.81-54.94,63-87.64c11.99-22.81,29.2-62.51,28.61-88.67c-.67,1.33-1.33,2.67-2,4c-.33-1.33-.67-2.67-1-4c-2.04-.17-5.19-.4-6.81,1.19c-4.64,4.54-2.55,23.4-6.19,28.81c-9.24,13.72-10.42,39.42-23,52c4.51-15.28,13.94-30.23,18.76-45.97c9.22-30.06,10.28-57.36,14.24-88.03c-2.06,0-3.49-.51-5,1c-8.7-5.8,2.58-20.42-5-28c.58,90.92-35.17,221.43-135.46,248.04c-29.36,7.79-57.38,3.68-82.78-13.94C487.53,566.79,511.8,354.52,602,280c-.69-2.49-1-4.38-1-7c.33,.33,.67,.67,1,1c3.46-3.46,2-9.36,2-14c-5.89,.44-18.37,16.05-22.5,21c-77.49,92.98-98.66,244.57-27.5,347c17.94,25.82,52.71,49.17,85.28,50.11c13.05,.38,38.59-2.37,49.72-9.11c6.53-3.96,15.75-9.58,23-12c-14.53,21.79-79,28.56-101.59,17.19c-8.39-4.22-17.67-7.07-25.57-12.64c-72.74-51.3-80.51-147.86-72.89-229.01C513.84,412.37,523.73,392.7,526,373c-3.28,1.09-5.72,.82-9,0c-1.31,3.36-2.4,7.4-5,10c5.77-22.27,15.7-51.51,28.72-70.35c2.5-3.61,17.97-25.65,8.28-25.65c0-3.38-1.06-3-4-3c1.33-.33,2.67-.67,4-1c0-.67,0-1.33,0-2c-1,0-2,0-3,0c-21.4,21.4-39.74,78.14-47.42,107.74C474,483.47,480.79,610.81,553.16,683.98c21.47,21.7,52.99,36.25,84,36.15C727.35,719.86,790.66,629.45,820,554Z"/>
</g>
<path d="M567,350c-1.63,8.87-8.62,18.97-11.8,27.93c-8.3,23.42-15.4,52.04-16.33,77.04C536.27,525.06,555.99,617.01,634,636c18.43,4.49,37.81,1.97,55.47-5.04C811.41,582.54,847.42,290,704.94,261.19c-22.51-4.55-53.95,2-72.94,14.81c-16.1,10.86-36.18,27.2-46.5,44.05c-5.1,8.34-12.08,23.53-18.5,29.95Zm110-79c0-.33,0-.66,0-1c16.66-.16,34.29,.97,49,9c115.18,62.9,65.07,352.69-83.73,348.13c-20.13-.62-41.53-16.7-54.27-31.13c-70.9-80.29-44.23-240.58,38.45-303.52c11.95-9.1,35.24-22.33,50.55-21.48Z" fill="#86898C"/>
<path d="M715,287c4.89,.98,6.64,2.07,5,7c8.36,5.57,12.6,7.19,17,16c4.51-1.24,6.22-2.16,9,2c-1.43,2.59-2,4-2,7c2.49,.69,4.38,1,7,1c.86,1.78,1.58,3.58,3,5c-1.42,4.25-3.66,6.36-2,11c2.33,0,4.67,0,7,0c0,.67,0,1.33,0,2c.67,0,1.33,0,2,0c0,4.33,0,8.67,0,13c1-1,2-2,3-3c1.04,3.11,.89,2.96,4,4c.91,5.1,1.46,18.92,0,23c1.33-.67,2.67-1.33,4-2c1.78,5.53-3.48,12.46,5,10c6.07,26.89,.4,52.44,1,79c-.33,0-.67,0-1,0c.43,15.53-6.97,34.57-12,49c-19.91,57.11-57.11,107.62-123,107c0-.33,0-.67,0-1c-28.95-7.5-59.03-28.64-68-59c-4.53-7.05,.33-6.34,4.03-10.22C603.23,521.4,623.05,483.09,628,447c0-6.66,3.91-14.81,4.16-21.44c1.11-29.45,1.77-59.09-8.16-87.56c4.7-4.7,3.15-10.79,3-17c-6.25-2.08-3.24-7.04-2-12c.33,.67,.67,1.33,1,2c1.67,0,3.33,0,5,0c1.1-3.29,.93-3.1-1-6c3.23-1.08,5.62-1,9-1c0-9.52,2.94-6.96,9-11c0,.33,0,.67,0,1c.67,.33,1.33,.67,2,1c0-7.48,15.27-8.84,21-7c4-12,15.35-2.75,19-4c1.92-.66,2.67-4.33,6-3c1.65,.66,3.29,4.48,4,6c2.07-2.07,2.07-2,5-2c2.27,4.54,5.65,2.94,10,2Zm-38-16c-15.31-.85-38.6,12.38-50.55,21.48C543.77,355.42,517.1,515.71,588,596c12.74,14.43,34.14,30.51,54.27,31.13C791.07,631.69,841.18,341.9,726,279c-14.71-8.03-32.34-9.16-49-9c0,.34,0,.67,0,1Zm-70,51c5.4,2.7,10.91,26.72,12,33c8.76,50.31,5.96,111.31-23.12,154.94c-8.49,12.72-17.6,22.33-26.88,34.06c-3.77-1.88-8.19-25.08-9.02-30.32c-7.68-48.8-3.38-97.54,17.08-142.65c5.26-11.6,11.8-23.14,18.87-33.75C597.92,334.27,607,324.78,607,322Z" fill="#535557"/>
<path d="M715,287c-4.35,.94-7.73,2.54-10-2c-2.93,0-2.93-.07-5,2c-.71-1.52-2.35-5.34-4-6c-3.33-1.33-4.08,2.34-6,3c-3.65,1.25-15-8-19,4c-5.73-1.84-21-.48-21,7c-.67-.33-1.33-.67-2-1c0-.33,0-.67,0-1c-6.06,4.04-9,1.48-9,11c-3.38,0-5.77-.08-9,1c1.93,2.9,2.1,2.71,1,6c-1.67,0-3.33,0-5,0c-.33-.67-.67-1.33-1-2c-1.24,4.96-4.25,9.92,2,12c.15,6.21,1.7,12.3-3,17c9.93,28.47,9.27,58.11,8.16,87.56c-.25,6.63-4.16,14.78-4.16,21.44c1,.33,2,.67,3,1c-.51,2.56-2.79,10.79-4,12c1.67,0,3.33,0,5,0c-1.94,2.91-2.55,3.43-6,4c.33,1.33,.67,2.67,1,4c-1,.33-2,.67-3,1c0,5.75,.33,13.69-1,19c5.33,0,10.67,0,16,0c0,2.33,0,4.67,0,7c3.68,.92,5.16,.96,9,0c0-10.33,0-20.67,0-31c2.33,0,4.67,0,7,0c.33,1.33,.67,2.67,1,4c10.33,0,20.67,0,31,0c0,2.33,0,4.67,0,7c5.32,1.23,10.59,1.07,16,1c0,4,0,8,0,12c5.67,0,11.33,0,17,0c0-2.67,0-5.33,0-8c5.33,0,10.67,0,16,0c0-5,0-10,0-15c5.26-1.05,9.66-1.07,15-1c0,5.33,0,10.67,0,16c5.33,0,10.67,0,16,0c2.46-4.92,1.88-6.72,1-12c1.33,.67,2.67,1.33,4,2c0,.67,0,1.33,0,2c.67-.33,1.33-.67,2-1c-.45-2.94-.18-4.59-3-6c1-.67,2-1.33,3-2c.67,.67,1.33,1.33,2,2c0-1.67,0-3.33,0-5c.33,.67,.67,1.33,1,2c.33,0,.67,0,1,0c-.6-26.56,5.07-52.11-1-79c-8.48,2.46-3.22-4.47-5-10c-1.33,.67-2.67,1.33-4,2c1.46-4.08,.91-17.9,0-23c-3.11-1.04-2.96-.89-4-4c-1,1-2,2-3,3c0-4.33,0-8.67,0-13c-.67,0-1.33,0-2,0c0-.67,0-1.33,0-2c-2.33,0-4.67,0-7,0c-1.66-4.64,.58-6.75,2-11c-1.42-1.42-2.14-3.22-3-5c-2.62,0-4.51-.31-7-1c0-3,.57-4.41,2-7c-2.78-4.16-4.49-3.24-9-2c-4.4-8.81-8.64-10.43-17-16c1.64-4.93-.11-6.02-5-7Z" fill="#86898C"/>
<path d="M485,405c-.33,0-.67,0-1,0c-.33,.67-.67,1.33-1,2c-2,0-4,0-6,0c-1.42-25.59,25-63.04,25-85c-15.49-4.26-164.57-37.63-168-36c-8.35,3.97-30.69,72.67-32,84c15.91,1.15,31.96,7.25,47.56,10.2C392,388.25,433.72,397.54,476,406c.34,14.85-5.37,29.85-5,45c-.33,0-.67,0-1,0c.36,21.56-6.11,52.51,0,73c3.36-.18,4.5-.5,7,2c0-.67,0-1.33,0-2c.21-13.79-1.65-27.4-1.09-41.36c1.07-26.39,5.57-51.51,9.09-77.64Z" fill="#A7A8AB"/>
<path d="M607,322c0,2.78-9.08,12.27-11.07,15.28c-7.07,10.61-13.61,22.15-18.87,33.75c-20.46,45.11-24.76,93.85-17.08,142.65c.83,5.24,5.25,28.44,9.02,30.32c9.28-11.73,18.39-21.34,26.88-34.06C624.96,466.31,627.76,405.31,619,355c-1.09-6.28-6.6-30.3-12-33Z" fill="#FEFEFE"/>
<path d="M470,451c.33,0,.67,0,1,0c-.37-15.15,5.34-30.15,5-45c-42.28-8.46-84-17.75-126.44-25.8c-15.6-2.95-31.65-9.05-47.56-10.2c-4.34,6.95-8,30.49-8,39c48.36,9.4,96.51,22.77,145.17,30.88c10.03,1.67,19.76,2.51,29.83,5.12c.55,2.08,1,3.84,1,6Z" fill="#939495"/>
<path d="M470,451c0-2.16-.45-3.92-1-6c-10.07-2.61-19.8-3.45-29.83-5.12C390.51,431.77,342.36,418.4,294,409c-3,10.14-3.2,20.4-3,31c-1.05-3.73-1.07-7.13-1-11c-5.33,18.55,1.96,66.88,8,85c14.46,1.45,32.17,7.43,46,12c27.31,9.03,56.97,12.53,84.58,20.94C441.43,550.86,461.7,559,475,559c0-9.83-3.84-24.3-5-35c-6.11-20.49,.36-51.44,0-73Z" fill="#86898C"/>
<path d="M777,462c-.33-.67-.67-1.33-1-2c0,1.67,0,3.33,0,5c-.67-.67-1.33-1.33-2-2c-1,.67-2,1.33-3,2c2.82,1.41,2.55,3.06,3,6c-.67,.33-1.33,.67-2,1c0-.67,0-1.33,0-2c-1.33-.67-2.67-1.33-4-2c.88,5.28,1.46,7.08-1,12c-5.33,0-10.67,0-16,0c0-5.33,0-10.67,0-16c-5.34-.07-9.74-.05-15,1c0,5,0,10,0,15c-5.33,0-10.67,0-16,0c0,2.67,0,5.33,0,8c-5.67,0-11.33,0-17,0c0-4,0-8,0-12c-5.41,.07-10.68,.23-16-1c0-2.33,0-4.67,0-7c-10.33,0-20.67,0-31,0c-.33-1.33-.67-2.67-1-4c-2.33,0-4.67,0-7,0c0,10.33,0,20.67,0,31c-3.84,.96-5.32,.92-9,0c0-2.33,0-4.67,0-7c-5.33,0-10.67,0-16,0c1.33-5.31,1-13.25,1-19c1-.33,2-.67,3-1c-.33-1.33-.67-2.67-1-4c3.45-.57,4.06-1.09,6-4c-1.67,0-3.33,0-5,0c1.21-1.21,3.49-9.44,4-12c-1-.33-2-.67-3-1c-4.95,36.09-24.77,74.4-49.97,100.78c-3.7,3.88-8.56,3.17-4.03,10.22c2.15,2.15,15.08,.92,7,9c2.45,2.15,3,2.72,3,6c10.1,3.37,5.31,4.61,9,12c3.06,0,4.37,.55,7,2c-.33,1.33-.67,2.67-1,4c3,0,6,0,9,0c0,3,0,6,0,9c5.75,1,5.75,1,8,1c.67,1.33,1.33,2.67,2,4c1-1,2-2,3-3c1.57,1.57,.29,2.43,1,4c1.67,3.68,14.54,.85,18,2c-1.29,2.59-2.28,2.47-5,3c2.83,1.41,6.78,2.78,9,5c-.9,.9-.63,1-2,1c0,.33,0,.67,0,1c65.89,.62,103.09-49.89,123-107c5.03-14.43,12.43-33.47,12-49Z" fill="#A7A8AB"/>
<path d="M477,524c0,.67,0,1.33,0,2c-2.5-2.5-3.64-2.18-7-2c1.16,10.7,5,25.17,5,35v1c2-.33,4-.67,6-1c0-2.33,0-4.67,0-7c0-7.84-1.94-20.38-4-28Z" fill="#939495"/>
<path d="M642,617c1.37,0,1.1-.1,2-1c-2.22-2.22-6.17-3.59-9-5c2.72-.53,3.71-.41,5-3c-3.46-1.15-16.33,1.68-18-2c-.71-1.57,.57-2.43-1-4c-1,1-2,2-3,3c-.67-1.33-1.33-2.67-2-4c-2.25,0-2.25,0-8-1c0-3,0-6,0-9c-3,0-6,0-9,0c.33-1.33,.67-2.67,1-4c-2.63-1.45-3.94-2-7-2c-3.69-7.39,1.1-8.63-9-12c0-3.28-.55-3.85-3-6c8.08-8.08-4.85-6.85-7-9c8.97,30.36,39.05,51.5,68,59Z" fill="#CACBCD"/>
<path d="M504,697c-9.47,0-38.94-12.79-49.37-16.58C423.07,668.93,389.83,662.44,358,651c-12.48-4.49-26.96-9.83-40-12c-2.04,6.4-4.82,14.09-8,20c62.22,20.74,125.4,39.76,186,64h1c1.05-9.06,5.52-17.15,7-26Z" fill="#939495"/>
<g fill="#A7A8AB">
<path d="M496,723c-60.6-24.24-123.78-43.26-186-64c-3.26,5.34-6.72,13.72-11,18c14.23,7.66,33.92,11.97,49.46,17.15c27.34,9.12,54.42,19.23,81.52,29.17c9.23,3.39,49.04,22.83,55.83,21.35c3.02-.65,8.6-17.59,10.19-21.67Z"/>
<path d="M520,663c-6.98-13.97-15.19,29.15-16,34c-1.48,8.85-5.95,16.94-7,26c1.67,.33,3.33,.67,5,1c0,.33,0,.67,0,1c6.08-6.08,18.51-52.9,18-62Z"/>
<path d="M463,790c-3.04-3.04,14.93-25.78,17-32c-27.54-4.59-63.85-26.36-92-35c-22.39-6.87-46.63-15.81-68.31-24.8c-9.23-3.82-19.75-5.23-28.69-10.2c-18.76,17.78-35.03,31.01-56.78,45.08C223.49,740.02,209.77,744.04,200,752c51.19,16.67,102.02,43.39,150.24,65.35c1.52,.69,3.76,1.93,3.76,3.65c-2.47,.65-7,2.11-7-2c-3.75,0-10-4.83-10,1c4.08,3.32,54.78,28.29,57,28c7.53-.98,62.62-49.93,69-58Z"/>
</g>
<g fill="#CACBCD">
<path d="M496,723c-1.59,4.08-7.17,21.02-10.19,21.67c-6.79,1.48-46.6-17.96-55.83-21.35c-27.1-9.94-54.18-20.05-81.52-29.17c-15.54-5.18-35.23-9.49-49.46-17.15c-2.3,4.06-5.44,7.17-8,11c8.94,4.97,19.46,6.38,28.69,10.2c21.68,8.99,45.92,17.93,68.31,24.8c28.15,8.64,64.46,30.41,92,35c-2.07,6.22-20.04,28.96-17,32c14.79-14.79,35.53-44.21,39-65c0-.33,0-.67,0-1c-1.67-.33-3.33-.67-5-1h-1Z"/>
<path d="M337,820c0-5.83,6.25-1,10-1c0,4.11,4.53,2.65,7,2c0-1.72-2.24-2.96-3.76-3.65C302.02,795.39,251.19,768.67,200,752c-5.75,1.75-5.75,1.75-8,4c37.03,11.78,76.59,31.81,111.33,48.74C310.87,808.41,329.25,820,337,820Z"/>
</g>
</svg>
