<svg version="1.1" xmlns="http://www.w3.org/2000/svg" width="1024" height="1024">

<path d="M395,220c8.23-9.09,23.85-16.73,34.34-23.36c16.58-10.48,34.26-20.05,54.15-22.6C524.98,168.73,584.5,197.07,621,216c4.72,.66,6.99,2.99,11,5c10.6,1.47,26.28,10.21,36.5,14.74c20.88,9.24,50.28,21.56,72.5,25.26c0,.33,0,.67,0,1c27.51,3.75,56.3,16.42,83.8,22.75c5.39,1.24,12.81,5.25,18.2,5.25c19.08,3.18,112,39.18,112,61c7.34,6.34,10.6,19.67,12,29c9.45,62.98-52.34,100.66-96,133c-6.67-20.85-.82-23.82-19-42c-3.28-1.64-5.43-3.81-9-5c7.66-7.87,54.2-47.47,62.17-49.63c.2-.05,23.35,4.99,25.83,5.63c17.97,.69,32.41-20.63,12.44-28.54C920.82,384.49,877.23,427.24,860,440c-2.81,2.96-5.18,5.44-9,7c-.9-.9-.63-1-2-1c0,3.99-7.15,10-11,10c4.99-7.99,2.57-23.68-1-32c-14,2.15-42.46,31.46-53,42c1,1,1,1,3,2c0,.33,0,.67,0,1c.67-.33,1.33-.67,2-1c0-2.91,1.76-3.46,4-5c1.33,.67,2.67,1.33,4,2c-7.07,7.07-8.44,4.48-10,18c2.59,11.32,.29,15.47-9,22c-8.29,8.29-23.71,21.85-34,27c-1.89,1.89-3.85,3.42-6,5c-4.01,4.01-8.56,7.48-13,11c-10.33,8.41-21.61,17.61-31,27c-5.18,5.18-11.21,10.5-17,15c-14.33,18.12-34.67,31.88-49,50c-1.78-5.79-2.01-13.8-3-20c-6.23,2.61-13.78,12.67-18,19c-2.5-7.18-4.86-12.23-8-19c-.67,0-1.33,0-2,0c-.83,3.65,2.27,14-1,14c0,5.07,4.51,11.61,5.06,17.37c3.09,32.79-8.34,70.53-42.27,81.5c-14.92,4.82-34.76,.35-49.05-5.04c-40.39-15.25-78.9-35.48-117.52-54.43c-58.7-28.81-119.58-56.65-179.66-83.01c-24.98-10.96-90.96-33.7-106.55-53.14C96.91,525.91,95.89,513.74,101,500c3.72-10.29,7.28-12.33,16-17c0,.67,0,1.33,0,2c-1,.33-2,.67-3,1c.33,.67,.67,1.33,1,2c3.75-2.22,14.35-2.82,18,0c18.2,14.08,66.92,32.44,91.12,42c3.21,1.27,5.88,2.14,5.88,6c10.47,1.05,15.85,5.87,24.93,9.52c19.17,7.7,39.71,14.26,59.2,22.94C324.76,573.2,334.76,581.1,345,587c9.75,5.62,72.57,32.14,75,37c2.29-1.46,6.08-4.35,9-4c2.86,.34,70.12,31.91,74.94,35.13C512.48,660.82,539.87,689,547,689c.33,.67,.67,1.33,1,2c1.13-1.13,1.13-1.13,2-6c0-22.11-17.95-31.12-33.95-41.12c-31.63-19.76-73.79-32.28-107.99-47C352.06,572.77,291.88,546.4,238,517c-31.62-17.25-66.87-36.9-100.93-48.8c-9.56-3.34-22.62-7.82-32.53-5.2c-21.82,5.74-12.12,21.08-10.76,34.58c.25,2.46-1.94,6.84-1.78,10.42c-16.92,0-24.47-49.86-17-62c1.54-11.27,9.45-29.27,18-37c0-4.89,20.69-25.23,26-27c13.28-13.28,49.09-34.71,67-40c4.14-4.14,13.2-8.29,19-10c15.31-7.11,29.81-19.22,46-24c2.81-3.43,12.67-7.99,17-10c2.99-1.99,5.6-2.94,9-4c4.28-4.28,13.28-8.93,19-11c3.55-3.55,11.35-7.29,16-10c1.99,0,7.43-4.07,10-5c0-.33,0-.67,0-1c18.65-8.66,35.21-23.7,53-34c3.98-2.66,7.43-5.35,12-7c1.73-3.46,4.41-4.8,8-6ZM779,522c7.92-2.26,36-27,43-34c-1-1-2-2-3-3c2.56-2.65,11.3-11.56,14.67-11.9c15.17-1.52,32.59,36.37,25.33,48.9c-4.15,7.16-56.54,48.77-65,53c-2.83,2.93-5.79,5.5-9,8c-11.28,8.24-21.44,18.29-33,26c-2,2-2,2-5,4c-4.01,4.01-8.56,7.48-13,11c-10.6,8.87-22.35,17.35-32,27c-5.7,6.01-13.2,10.2-19,16c-19.87,20.63-44.35,38.35-64,58c-17.39,26.09-60.88,30.06-87,16c15.34,4.93,38.18-1.73,50.33-11.5c16.26-13.09,24.21-31.17,29.17-51.2c.74-2.98-.58-8.55,1.11-10.8c9.2-12.3,25.12-24.75,36.37-35.7c17.66-17.2,36.74-42.3,57.02-55.8c7.14-4.75,17.07-12.47,23-19l6-5c2.2-2.2,4.56-4.07,7-6c4.63-3.71,9.23-7.47,14-11c3.6-3.78,7.95-6.74,12-10c2.44-1.93,4.8-3.8,7-6c1.33,1,2.67,2,4,3ZM339,672c-10.3,5.15-13.18,29.7-13,40c-7.4-.58-4.25-4.62-9-7c.14-3.65,.75-6.25-2-9c.2,3.63-.14,5.87-2,9c-.33-.67-.67-1.33-1-2c-.67,.67-1.33,1.33-2,2c-1-.33-2-.67-3-1c.15-5.43-1.11-10.51-1-16c-3.09,4.63-1.38,8.93-3,14c-1.67-.67-3.33-1.33-5-2c-.33,.67-.67,1.33-1,2c-6.73-10.09,2-25.23,2-36c-7.08,7.08-7.23,24.3-7,34c-16.14-7.79-4.97-14.99-9-28c-3.26,4.88-3.1,14.13-3,20c-5.18,0-8.04-3.2-9-8c-1,.67-2,1.33-3,2c-2.2-2.2-4.12-2.94-7-4c.09-5.09,.32-10.04-1-15c-2.74,4.11-1.65,7.46-3,12c-2.3-2.3-3.87-2.51-7-3c-.24-13.24,2.01-33.01,11-42c12.55,3.71,68.62,30.06,78,38Zm0,0c4.44,.7,6.05,2.68,10,4c-6.13,13.21-12.35,28.49-12,44c-20.93-12.21-1.55-31.44,2-48ZM90,519c-14.9,10.49-22.6,25.58-24.19,43.55C59.63,632.3,149,640.7,190.89,672.14c7.18,5.39,17.88,8.92,25.99,12.92c27.46,13.56,54.39,29.36,82.02,43.01c61.6,30.43,119.33,67.54,181,98c27.11,13.39,75.32,47.22,105.1,44.91c35.19-2.72,60.9-34.5,84.06-57.93c47.48-48.01,97.8-93.44,146.67-140.05c12.67-12.09,38.31-40.72,51.27-49c19.54-12.49,90.05-76.89,99.64-96.53c7.46-15.26,14.33-44.97,5.46-60.72c-2.24-3.99-11.19-13.86-12.1-16.75c-.96-3.02,9.44-20.19,11.23-24.44c12.42-29.54,5.84-62.89-13.86-87.35C919.49,291.19,828.22,280.86,774,263c-20.09-6.62-40.19-12.73-60.42-19.47c-61.45-20.49-139.8-68.11-200.34-76.33c-10.51-1.43-22.58-.26-33.24-.2c0,.34,0,.67,0,1c-36.01-1.64-125.7,69.6-159,91c-45.36,29.15-98.22,55.97-147,80c-31.22,15.38-66.47,34.25-87.89,63.07C59.89,437.34,52.47,489.2,90,519ZM726,731c-.38-6.78,10.81-54.27,15-58c4.18-3.73,25.61,.14,31,1c-.2-7.14,7.59-43.97,14-46c8.93-2.83,19.21,5,28,5c-.64-27.98,9.43-49.1,40-36c-.39-10.03,3.52-38.56,15.6-39.87c6.52-.7,15.78,1.74,21.4-.13c.85-8.5,1.15-19.45,5-27c12.32-.18,20.21,.47,32,3c1.11-8.23,2.78-17.55,5.14-25.28c.81-2.63,4.86-4.7,4.86-6.72c10.9-.5,15.24,3.71,17,14c-5.62,0-10.05-4-15-4c.23,12-4.31,21.92-8,33c-8.88,.17-23.24-2.78-31-7c.15,10.53-.65,21.94-4,32c-9.59,.22-19.41-2.14-29-3c-3.65,13.41-4.25,28.26-7,42c-9.93,.28-25.92-8.69-34-6c.32,14.16-7.6,28.88-7,42c-11.16,.31-22.75-5.88-34-7c.22,11.57-2.74,38.6-9,48c-11.26-1.13-21.54-3.22-33-3c.35,20.74-7.6,40.97-15,60c-8.65-1.44-18.53-6.18-27-9c.13,10.37-.71,20.84-3,31c-8.64,0-15.57-7-23-7c-1.67,10.5-3.1,24.15-9,33c-9.35-1.56-17.23-7-27-7c.17,6.18-2.94,25.97-6.2,30.86c-1.5,2.25-6.42,4.29-8.8,6.14c-.38-16.85,7.36-31.15,10-47c10.63-2.43,17.89,3,28,3c1.08-9.29,2.85-24.27,8-32c7.47,1.02,14.99,7,22,7c-.15-7.78-.24-23.64,4-30c9.66,1.11,20.87,4.58,29,10ZM122,590c-1.1,4.41-1.09,8.5-1,13c-8.04-.89-9.57-4.59-9-12c-2.36,2.36-2.49,3.78-3,7c-.66-1.32-1.32-2.64-2-4c-.58,2.92-.92,3.92-3,6c-.23-10.06,.35-14.62,4-24c-8.19,2.73-7.12,15.59-7,23c-2.94-2.03-4.97-4.06-7-7c-1.11,3.33-.84,5.62,0,9c-.66,.33-1.32,.66-2,1c.99,.33,1.98,.66,3,1c0,1.67,0,3.33,0,5c-8.17-7.35-8.18-23.66-8-34c-4.28,6.77-2.04,21.61,0,29c-14.74-7.37-14.13-45.39-8.6-58.23c2.7-6.26,7.88-11.05,12.6-15.77c2.86,1.43,10.25,22.16,17.42,27.8c13.67,10.75,30.41,16.52,45.58,24.2c15.91,8.05,33.1,18.9,50,25c-1.94,13.07-11.64,19.48-11,38c-2.88-1.24-4.83-2-8-2c-.13-10.06,1.4-18.16,3-28c-4.66,2.33-5.07,19.22-7,25c-1.98-.66-3.96-1.32-6-2c-.13-6.52-1.76-15.5,2-21c-1.33,0-2.67,0-4,0c-.75,6.37-1.1,12.58-1,19c-13.85-10.15-3.64-11.28-9-22c-1.42,5.08-1.21,10.36-4,15c-7.3-2.06-3.46-4.46-7-8c-.33,.99-.66,1.98-1,3c-3.44-.74-6.6-3-10-3c-.33,.99-.66,1.98-1,3c-2.07-2.07-2.07-2-5-2c-4.57-8.25-1.24-16.73-4-25c-2.16,2.16-1.04,11.69-1,15c-3.79-1.89-3.5-5.5-8-7c0-4.67,0-9.33,0-14Zm85,41c-1.46,5.63-2.59,11.35-4,17c-12.17-1.65-6.77-10.11-7-19c.66-.33,1.32-.66,2-1c-.33-8.82,4.26-12.52,8-20c12.9,1.79,27.67,13.46,40,18c-4.9,14.71-9.26,25.48-9,42c-4.63-.71-5.09-2.7-9-4c-.52-2.76-1.11-5.33-2-8c0,2.31,0,4.62,0,7c-3.97-1.32-4.08-.92-7,2c-1.06-6.67-2.13-12.18-2-19c-.66,.33-1.32,.66-2,1c0,2.64,0,5.28,0,8c-13.38-4.46-7.7-13.05-8-24Zm51,1c-2.22,6.03-6.03,10.91-7.74,17.37c-2.05,7.75-1.67,15.85-4.26,23.63c-2.5-.83-4.67-1.79-7-3c-.08-7.17-.82-17,1.15-23.78c1.2-4.14,7.85-13.6,7.85-17.22c4.98-.26,5.67,1.56,10,3Zm129,98c-.23-11.96,5.57-18.72,9-29c13.92,2.49,1.49,17.54,0,28c-1.32,.33-2.64,.66-4,1c-.66-.99-1.32-1.98-2-3c-.99,.99-1.98,1.98-3,3Zm32,17c-1.44,6.08-3.26,10.55-3,17c-2.37-2.37-3.81-2.5-7-3c-2.06-11.06-1.23-23.11,2.5-33.7c1.45-4.12,5.5-11.13,5.5-15.3c5.81,.81,21.14,8.64,22,14c-.99,.33-1.98,.66-3,1c-3.04,18.22-7.23,23.28-7,44c-1.75-1.75-2.83-3.17-5-1c-4.85-9.7-5.14-11.66-5-23Zm20,26c-2.56-2.56-6.87-8.9-7.38-12.64c-.59-4.33,6.21-34.3,10.38-35.36c2.92-.74,7.19,3.19,9,5c-4.85,8.41-7.89,40.26-12,43Zm28-36c-10.48,10.48-9.32,24.8-13,38c-20.32-4.28-2.85-30.7,0-44c5.01,1.53,8.2,4.23,13,6Zm38,19c5.1,.67,7.37,3.07,12,4c-2.72,15.25-10.35,26.97-10,44c-1.65-.33-3.3-.66-5-1c-3-18.03-4.16-21.35,2.55-38.65c.98-2.53-.35-5.55,1.45-7.35c-.33-.33-.66-.66-1-1Zm7,53c-9.19-9.19,5.27-39.82,8-48c3.78,1.09,6.47,1.91,9,5c-5.45,10.9-7.63,21.14-10,33c-6.25,2.08-9.56,2.03-7,10Z" fill="#302314"/>
<g fill="#D5B992">
<path d="M621,216c-36.5-18.93-96.02-47.27-137.51-41.96c-19.89,2.55-37.57,12.12-54.15,22.6C418.85,203.27,403.23,210.91,395,220c5.85-.1,11.34,1,17,1c13.6-6.55,14.93-13.3,32-13c-3.55,4.51-16,10.52-16,15c1.67,.33,3.33,.67,5,1c1-1.33,2-2.67,3-4c-1-.33-2-.67-3-1c16.58,1.51,23.65-27.45,46-20c-5.13,2.2-37,28.21-37,31l3,2c1.38-4.15,34.12-32.2,39-33c2.46-.4,5.79,1.04,8,2c-.94,5.84-30.45,26.11-37,33c-.67-.67-1.33-1.33-2-2c-.33,.67-.67,1.33-1,2c-1,0-2,0-3,0c5.43,1.16,18.02,6.27,22,10c1.65-1.65,2-1.58,2-4c13.69-5.58,46.35-50.65,60-37c-4.88,4.88-8.47,.74-13,3c5.04,3.24,12.26,2.14,18,2c-7.15,7.15-45,24.8-45,32c-5.08-.27-10.12,5.88-13,3c.33,1.33,.67,2.67,1,4c-.33,0-.67,0-1,0l2,1c4.54-2.43,31.34-19.84,32-20c2.94-.72,6.32,1.97,8,4c-5.18,5.18-11.71,5.57-16,12c4.89,1.12,9.56,.37,14,3c-2.36-2.36-3.96-3.58-7-5c8.79-7.28,16.11-12.89,26-3c-4.45,2.07-8.1,5.07-12,8c.33,1,.67,2,1,3c5.94-4.46,10.73-8.85,18-11c-.33-1-.67-2-1-3c-8.61-1.17-16.74-5.37-25-8c0-10.77,13.61-8.39,19-3c-1.33,.67-2.67,1.33-4,2c0,.67,0,1.33,0,2c12.45-5.19,18.29,4.28,31,7c-7.4-7.4-14.64-5.73-22-12c8.69-2.9,33.56-24.44,42-16c.67-.67,1.33-1.33,2-2c1,.67,2,1.33,3,2c-1.26,1.26-1.45,2.34-2,4c-11.87,1.98-18.73,9.44-29,14c.33,1,.67,2,1,3c10.57-4.31,17.67-18.33,30-6c-14.94,8.96-28.9,17.93-44,26c-5.28,2.82-7.89,7.96-14,10c0,1,0,2,0,3c-1.67,.33-3.33,.67-5,1c-.33,1.33-.67,2.67-1,4l3,2c0-4.42,56.36-40.72,64.58-44.65c9.46-4.52,16.46-6.07,26.42-8.35Z"/>
<path d="M741,262c0-.33,0-.67,0-1c-22.22-3.7-51.62-16.02-72.5-25.26c-10.22-4.53-25.9-13.27-36.5-14.74c-.58,1.15-.51,1.93-1.87,2.13C620.42,224.58,598.37,238,598,238c-4.98-14.95-49.16,34-60,34l5,4c21.12-8.74,33.08-39.53,60-36c2.12-6.36,5.98-6.35,12-6c-1.36,2.72-51.21,38-54,38c-1.49,4.46-5,4.32-5,9c4.1,.76,24.87,9.87,27,12c3.36-1.63,5.33-3.17,9-4c0-1,0-2,0-3c13.15-4.38,25.09-30.3,39-15c-8.55,1.27-29.38,19.38-36,26l2,2c6.6-5.13,31.23-26.67,37.21-27.8c1.21-.23,13.76,4.77,14.79,5.8c5.92-2.72,8.41-1.59,13,3c-10.09,7.37-20.93,22.04-33,14c11.25-11.25,11.25-11.25,15-13c0-1,0-2,0-3c-10.94,5.1-27,25-38,25c4.89,1.09,16.59,4.97,20,8c3.63-3.63,30.57-24.71,33.92-25.27c4.02-.67,8.6,2.53,12.08,4.27c-8.8,9.55-22.49,16.49-32,26c6.74,.64,15.47,7,21,7c10.89-11.21,18.64-20.68,34-13c-10.07,1.68-13.39,16-25,16c2.67,.67,5.33,1.33,8,2c2.62-7.87,15.5-13.89,22-19c-3.51-1.76-5.98,.04-8-4c-2.33,0-4.67,0-7,0c0-7.85,20-12.74,20-21c-5.66,2.63-24.32,19.56-28,18c-3.24-1.37-3.81-2.45-8-3c0-4.44,32.92-30.15,39.23-32.4c3.66-1.31,8.07-.16,11.77,.4c.33,1.33,.67,2.67,1,4c-2.73,.91-10.06,6.47-13,9c.67,.67,1.33,1.33,2,2c6.92-5.07,27.3-14.45,31-20Zm-65-8c-3.17,2.47-26.32,19.87-28.01,19.99c-2.16,.15-7.64-3.08-9.99-3.99c5.35-10.69,27.12-21.83,38-16Zm-19,17c5.05-1.68,33-28.63,33-11c-7.39,3.34-17.93,10.93-24,17c-3.08-1.2-6.06-2.48-9-4c0-.66,0-1.32,0-2Zm8,9c6.05-1.71,26.1-22,32-11c.32,.59,.32,1.41,0,2c-2.72,5.03-32,25.05-32,9Z"/>
<path d="M331,396c0-.33,0-.67,0-1c-1.67-.33-3.33-.67-5-1c-6.69,5.61-23.93,19.63-31.7,22.72c-3.54,1.41-6.41-3.35-11.3-1.72c3.4,1.06,6.02,2.02,9,4c-5.59,5.59-12.03,8.65-17,15c.33,.33,.67,.67,1,1l1,1c1.04-2.07,17.94-16.91,20.37-17.59c2.56-.71,6.93,1.07,9.63,1.59c-1.38,3.75-3.79,6.37-5,10c6.32-4.63,7.46-7.54,14-1c-2.8,2.8-9.52,7.04-11,10c.33,.33,.55,.87,1,1c.37-.01,.73-.02,1.09-.03c5.76-.31,4.26-3.92,6.91-5.97c8.41-6.51,20.48-15,29.94-20.03c4.38-2.33,9.15-2.36,13.06-4.97c-2.92-1.95-4.63-2.45-8-3c-8.54,8.54-25.94,22.53-37,17c2.91-4.3,7.29-6.08,11-10c-1.33-.33-2.67-.67-4-1c-3.78,7.56-10.03,5.98-17,5c0-8.16,8.09-6.23,13-5c.33-.67,.67-1.33,1-2c-1.67-.33-3.33-.67-5-1c6.12-6.12,11.02-11.5,20-13Z"/>
<path d="M151,412c0-.33,0-.67,0-1c-22.22-2.56-34.77-9.74-58-2c-8.55,7.73-16.46,25.73-18,37c.33,2.33,.67,4.67,1,7c1,0,2,0,3,0c1.39-6.93,4.74-18.74,10-24c0,4.67,0,9.33,0,14c6.42-2.48,12.25-2.18,19-2c.6-5.17,1.69-8.38,4-13c3.33,3.33,1.28,9.62,0,14c11.72,2.08,22.43,6.14,34,10c.75-7.47,2.52-18.3,11-20c-1-.33-2-.67-3-1c1.11-5.53,4.51-10.27,10-12c-1-1-2-2-3-3l-1-1c-7.3,7.3-12.9,19.27-16,29c-3.09-1.83-5.46-2.2-9-2c1.69-7.9,10.81-24.81,16-30Z"/>
<path d="M190,428l-2-1c-5.18,0-9.41,9.23-11,14c-17.37-8.11-11.07,5.02-25,9c3.16,9.49,59.82,29.82,72,42c.67-.67,1.33-1.33,2-2c5.25,1.71,9.2,5.2,14,2c.84,5.18,1.78,3.24,5.21,5.96c7.47,5.92,114.11,53.6,115.79,53.04c0-8.7,15.65-27.23,22-33l-2-1c-5.77,3.98-8.99,10.16-14,15c-4.32-8.63-3-1.03-3-12c-2.59,2.34-4.3,5-6,8c-2.67-.67-5.33-1.33-8-2c.67-1.67,1.33-3.33,2-5c-3.93,0-4.33,1.33-7,4c-4.16-8.32-10.88,.53-2.71-15.6c.58-1.13,1.14-2.27,1.71-3.4c-.67-.33-1.33-.67-2-1c-3.48,4.9-9.12,8.38-14,12c0-5.25,6.49-17.5,11-19l-4-2c0,.67,0,1.33,0,2c-1,.33-2,.67-3,1c-.63,4.07-4.28,11.52-8,14c-.33-.33-.67-.67-1-1c-2.82,1.88-3.67,2.92-5,6c0-2.42-.35-2.35-2-4c.67-.33,1.33-.67,2-1c0-1.37-.1-1.1-1-2c2.19-5.93,5-8.18,5-15c-7.2,7.2-5.74,18.3-18,13c0-8.54,7.49-14.97,11-22c-2.23-2.23-12.6-6.77-16-8c.33,1,.67,2,1,3c-.67,0-1.33,0-2,0c-1.75,5.26-5.25,9.6-6,15c-4.93-1.64-11.46,3.06-15,7c1.72-12.03,8.2-17.65,13-28c1.33,.33,2.67,.67,4,1c-17.32-8.34-34.98-19.49-53-26c-4.88,2.44-12.64-1.37-19,0c-1-2-2-4-3-6c-.33,1.33-.67,2.67-1,4c-2.45,0-3.03-.68-5-2c-.67,1.33-1.33,2.67-2,4c-2.89,0-4.11,1-7,1c1.59-5.21,4.41-8.77,6-14c-6.1,2.56-10.11,12.48-11,19c-3.38-.54-6.7-1.11-10-2c1.22-4.7,5.43-13.36,4-17c-2.31,2.2-3.81,4.81-6,7c-11.18-4.01-2.25-11.75,3-17Z"/>
<path d="M459,460l-3-3c-4.88,12.21-34.39,26.82-44,39c.33,.67,.67,1.33,1,2c3.59-3.59,26-27.54,26-11c-8.49,2.83-12.14,13.09-20,16c3.05,1.69,11.05,5,14,5c5.55-1.85,21-14.45,21-20c-3.02,3.02-6.12,5.2-10,7c-1.67-1.33-3.33-2.67-5-4c2.71-2.57,2.71-2.57,8-9c-4.6,0-8.49-.47-10-5c4.44-2.07,20.11-13.22,22-17Z"/>
<path d="M139,521c-5.41-2.71-12.21-5.16-18-7c-3.58,.7-7.37,2-11,2c-.78,3.41-1.1,6.51-1,10c1.21-2.33,2.17-4.5,3-7c.61,2.93,1.34,4.51,3,7c1.33-1.33,2.67-2.67,4-4c3.26,2.55,3.56,5.08,4,9c1,0,2,0,3,0c-.67,.67-1.33,1.33-2,2c.33,.33,.67,.67,1,1c4.16-4.16,4.31-3.7,5-10c2.04,2.82,4.34,7,8,7c.37-3.27,1-6.72,1-10Z"/>
<path d="M430,538l-2-1c-7,5.55-8.82,9.82-15,16c-3-1-3-1-6-3c.73-4.64,3.64-9.64,7-13c-6.71,0-6.92,7.92-11,12c-2-.67-4-1.33-6-2c0-4.76,1.76-8.85,4-13c-1,0-2,0-3,0c-2.91,8.07-4.45,10.7-13,7c1.7-5.76,5.03-9.91,8-15c-4.72,.49-10,8.27-10,13c-1,.33-2,.67-3,1c1,3,1,3,2,4c-3.74,7.21-4.77,7.77-10,13c-2.49-7.21,1.88-13.32,4-20c-4.64,4.19-6.75,11.21-9,17c-4.88-.87-4.88-.87-6-2c0,2.33,0,4.67,0,7c20.34-3.89,35.83,16.24,54.93,18.88c5,.69,4.91-3.88,10.07-3.88c-1.33,1.33-2.67,2.67-4,4c1.37,4.1,37.87,19.04,41,18c.33,1.33,.67,2.67,1,4c9.14-3.27,20.28,9,30,9c4.69,9.38,59.6,22.81,71,57c3.99-4.69,3.41-9.81,6-15c1,0,2,0,3,0c.33-1,.67-2,1-3c4.84,0,4.17-.97,3-5c4.36,1.45,6,1.04,6-4c2.22,1.11,4.04,2.49,6,4c1.04-2.25,5-7.06,5-9c-4.77-12.85-21.83-35.61-35-40c-.67-.33-1.33-.67-2-1c-.67,1-1.33,2-2,3c1.67-.33,3.33-.67,5-1c0,2.42,.35,2.35,2,4c-8.93,8.93-9.7,17.17-12,29c-23.34-1.09,5.22-35.41,7-36c-27.75-12.88-52.78-25.26-82-35c-3.76,0-3.21,4.79-8,0c-5.41,2.91-9.94,10-12,16c-2-.67-4-1.33-6-2c.76-5.48,4.16-8.92,6-14c-4.42,1.85-7.46,7.38-9,12c-2.34-1.21-4.51-2.17-7-3c2.11-5.73,6.58-8.61,9-14c-.33-.33-.67-.67-1-1c-9.88,7.21-9.02,17.84-22,20c2.44-9.07,7.47-13.42,10-21c-.67-.33-1.33-.67-2-1c-3.16,4.73-6.1,5.16-7,11c-3.41-.79-6.69-1.87-10-3c1.55-7.24,6.13-11.87,12-16c-.33-.33-.67-.67-1-1c.67-.67,1.33-1.33,2-2Z"/>
</g>
<g fill="#DBC09B">
<path d="M442,230c0-2.79,31.87-28.8,37-31c-22.35-7.45-29.42,21.51-46,20c1,.33,2,.67,3,1c-1,1.33-2,2.67-3,4c-1.67-.33-3.33-.67-5-1c0-4.48,12.45-10.49,16-15c-17.07-.3-18.4,6.45-32,13c9.55,1.3,21.67,9,30,9Z"/>
<path d="M449,234c1,0,2,0,3,0c.33-.67,.67-1.33,1-2c.67,.67,1.33,1.33,2,2c6.55-6.89,36.06-27.16,37-33c-2.21-.96-5.54-2.4-8-2c-4.88,.8-37.62,28.85-39,33l4,2Z"/>
<path d="M335,496c-6.48-3.24-13.25-6.37-20-9c-3.51,7.03-11,13.46-11,22c12.26,5.3,10.8-5.8,18-13c0,6.82-2.81,9.07-5,15c.9,.9,1,.63,1,2c-.67,.33-1.33,.67-2,1c1.65,1.65,2,1.58,2,4c1.33-3.08,2.18-4.12,5-6c.33,.33,.67,.67,1,1c3.72-2.48,7.37-9.93,8-14c1-.33,2-.67,3-1c0-.67,0-1.33,0-2Z"/>
<path d="M480,247c.33,0,.67,0,1,0c-.33-1.33-.67-2.67-1-4c2.88,2.88,7.92-3.27,13-3c0-7.2,37.85-24.85,45-32c-5.74,.14-12.96,1.24-18-2c4.53-2.26,8.12,1.88,13-3c-13.65-13.65-46.31,31.42-60,37c0,2.42-.35,2.35-2,4c3.73,.5,5.81,.87,9,3Z"/>
<path d="M606,303c11,0,27.06-19.9,38-25c0,1,0,2,0,3c-3.75,1.75-3.75,1.75-15,13c12.07,8.04,22.91-6.63,33-14c-4.59-4.59-7.08-5.72-13-3c-1.03-1.03-13.58-6.03-14.79-5.8c-5.98,1.13-30.61,22.67-37.21,27.8c3.27,.7,6.58,1.58,9,4Z"/>
<path d="M527,267c.33-1.33,.67-2.67,1-4c1.67-.33,3.33-.67,5-1c0-1,0-2,0-3c6.11-2.04,8.72-7.18,14-10c15.1-8.07,29.06-17.04,44-26c-12.33-12.33-19.43,1.69-30,6c-.33-1-.67-2-1-3c10.27-4.56,17.13-12.02,29-14c.55-1.66,.74-2.74,2-4c-1-.67-2-1.33-3-2c-.67,.67-1.33,1.33-2,2c-8.44-8.44-33.31,13.1-42,16c7.36,6.27,14.6,4.6,22,12c-12.71-2.72-18.55-12.19-31-7c0-.67,0-1.33,0-2c1.33-.67,2.67-1.33,4-2c-5.39-5.39-19-7.77-19,3c8.26,2.63,16.39,6.83,25,8c.33,1,.67,2,1,3c-7.27,2.15-12.06,6.54-18,11c-.33-1-.67-2-1-3c3.9-2.93,7.55-5.93,12-8c-9.89-9.89-17.21-4.28-26,3c3.04,1.42,4.64,2.64,7,5c-4.44-2.63-9.11-1.88-14-3c4.29-6.43,10.82-6.82,16-12c-1.68-2.03-5.06-4.72-8-4c-.66,.16-27.46,17.57-32,20c11.17,4.12,33.91,19,45,19Z"/>
<path d="M632,221c-4.01-2.01-6.28-4.34-11-5c-9.96,2.28-16.96,3.83-26.42,8.35C586.36,228.28,530,264.58,530,269c2.44,2.44,4.6,3,8,3c10.84,0,55.02-48.95,60-34c.37,0,22.42-13.42,32.13-14.87c1.36-.2,1.29-.98,1.87-2.13Z"/>
</g>
<g fill="#675D52">
<path d="M412,221c-5.66,0-11.15-1.1-17-1c-3.59,1.2-6.27,2.54-8,6c34.55-.58,75.82,23.58,106,38c63.06,30.14,127.34,52.91,193,77c33.9,12.44,117.45,26.45,141,50c6.27,4.98,13.4,10.21,16,18c7.4,7.4,9.24,27.29,6,37c1.37,0,1.1,.1,2,1c3.82-1.56,6.19-4.04,9-7c0-14.45,.31-25.15-8-38c-3.44-4.26-6.72-8.62-10-13c-6.32-4.22-13.19-11.18-20-14c-1.13,0-1.13,0-5-1c-20.66-12.05-43.25-16.77-66.7-23.38c-2.38-.68-4.02-3.2-6.06-3.56c-6.84-1.22-14.93-2-21.36-4.34c-5.82-2.12-14.87-3.5-19.88-5.72c-2.05-.91-3.31-3.53-6-4c-5.65-.99-13.95-2.01-19-5c-2.67-.67-5.33-1.33-8-2c-3.02-2.68-4.97-3.34-9-3c-5.53,0-14.26-6.36-21-7c-1.54,0-11.09-4.25-14-5c-3.41-3.03-15.11-6.91-20-8c-2.42-2.42-5.73-3.3-9-4l-2-2c-4.47,0-7.29-3.35-12-4c-2.13-2.13-22.9-11.24-27-12c-5.07-.87-7.39-4.38-13-5l-5-4c-3.4,0-5.56-.56-8-3l-3-2c-11.09,0-33.83-14.88-45-19l-2-1c-3.19-2.13-5.27-2.5-9-3c-3.98-3.73-16.57-8.84-22-10l-4-2l-3-2c-8.33,0-20.45-7.7-30-9Z"/>
<path d="M794,575c8.46-4.23,60.85-45.84,65-53c7.26-12.53-10.16-50.42-25.33-48.9c-3.37,.34-12.11,9.25-14.67,11.9c1,1,2,2,3,3c-7,7-35.08,31.74-43,34c12.95,14.24,21.86,32.43,15,53Z"/>
<path d="M122,590c0,4.67,0,9.33,0,14c4.5,1.5,4.21,5.11,8,7c-.04-3.31-1.16-12.84,1-15c2.76,8.27-.57,16.75,4,25c2.93,0,2.93-.07,5,2c.34-1.02,.67-2.01,1-3c3.4,0,6.56,2.26,10,3c.34-1.02,.67-2.01,1-3c3.54,3.54-.3,5.94,7,8c2.79-4.64,2.58-9.92,4-15c5.36,10.72-4.85,11.85,9,22c-.1-6.42,.25-12.63,1-19c1.33,0,2.67,0,4,0c-3.76,5.5-2.13,14.48-2,21c2.04,.68,4.02,1.34,6,2c1.93-5.78,2.34-22.67,7-25c-1.6,9.84-3.13,17.94-3,28c3.17,0,5.12,.76,8,2c-.64-18.52,9.06-24.93,11-38c-16.9-6.1-34.09-16.95-50-25c-15.17-7.68-31.91-13.45-45.58-24.2C101.25,551.16,93.86,530.43,91,529c-4.72,4.72-9.9,9.51-12.6,15.77C72.87,557.61,72.26,595.63,87,603c-2.04-7.39-4.28-22.23,0-29c-.18,10.34-.17,26.65,8,34c0-1.67,0-3.33,0-5c-1.02-.34-2.01-.67-3-1c.68-.34,1.34-.67,2-1c-.84-3.38-1.11-5.67,0-9c2.03,2.94,4.06,4.97,7,7c-.12-7.41-1.19-20.27,7-23c-3.65,9.38-4.23,13.94-4,24c2.08-2.08,2.42-3.08,3-6c.68,1.36,1.34,2.68,2,4c.51-3.22,.64-4.64,3-7c-.57,7.41,.96,11.11,9,12c-.09-4.5-.1-8.59,1-13Z"/>
<path d="M207,631c.3,10.95-5.38,19.54,8,24c0-2.72,0-5.36,0-8c.68-.34,1.34-.67,2-1c-.13,6.82,.94,12.33,2,19c2.92-2.92,3.03-3.32,7-2c0-2.38,0-4.69,0-7c.89,2.67,1.48,5.24,2,8c3.91,1.3,4.37,3.29,9,4c-.26-16.52,4.1-27.29,9-42c-12.33-4.54-27.1-16.21-40-18c-3.74,7.48-8.33,11.18-8,20c-.68,.34-1.34,.67-2,1c.23,8.89-5.17,17.35,7,19c1.41-5.65,2.54-11.37,4-17Z"/>
</g>
<path d="M827,391c-23.55-23.55-107.1-37.56-141-50c-65.66-24.09-129.94-46.86-193-77c-30.18-14.42-71.45-38.58-106-38c-4.57,1.65-8.02,4.34-12,7c8.65,2.88,25.29,1.16,33,5c13.81,6.87,31.08,11.59,45.04,18.71C476.37,268.62,500.52,281.07,525,290c4.41,1.61,9.8,6.87,14.06,8.77C563.43,309.59,594.18,316.9,617,331c4.84,2.99,15.13,2.98,20,5c24.23,10.04,52.13,16.64,78,26c10.59,3.83,26.74,4.27,36,9c10.22,5.21,24.82,6.21,35.02,11.78c8.37,4.58,19.33,10.55,27.97,14.02c2.17,.87,3.2,4.2,5.01,4.2c3.1-3.1,6.3-5.83,8-10Z" fill="#DBC09B"/>
<g fill="#675D52">
<path d="M819,401c-1.81,0-2.84-3.33-5.01-4.2c-8.64-3.47-19.6-9.44-27.97-14.02c-10.2-5.57-24.8-6.57-35.02-11.78c-9.26-4.73-25.41-5.17-36-9c-25.87-9.36-53.77-15.96-78-26c-4.87-2.02-15.16-2.01-20-5c-22.82-14.1-53.57-21.41-77.94-32.23c-4.26-1.9-9.65-7.16-14.06-8.77c-24.48-8.93-48.63-21.38-71.96-33.29C439.08,249.59,421.81,244.87,408,238c-7.71-3.84-24.35-2.12-33-5c-17.79,10.3-34.35,25.34-53,34c0,.33,0,.67,0,1c8.61,2.55,19.09,2.58,27,6c1.35,.58,2.67,3.5,4,4c1.79,.67,6.28-1.15,8,0c1.18,.79,1.82,4.21,3,5c1.68,1.12,6.46-.77,8,0c1.77,.88,2.68,3.57,4.59,4.59c4.53,2.42,12.56,4.16,17.41,5.41c2.35,.61,4.04,4.1,6,5c9.26,4.27,64.97,25.94,68,32c3.92-.46,52.15,22.37,53,25c2.11-.16,19,4.26,20,5c1.03,.76,1.72,4.32,3,5c1.9,1.01,6.11-.93,8,0c1.07,.52,1.98,3.5,3,4c4.19,2.07,13.53,3.44,18,5c1.3,.45,2.68,3.44,4,4c8.54,3.59,20.01,4.81,29,8c1.24,.44,2.74,3.25,4,4c4.93,2.95,24.25,6.9,30,8c3.3,.63,4.04,2.12,5,5c6.36-1.5,79.16,21.08,83,26c7.04-.26,44,17.87,44,26c8.46,8.46,14.31,14.86,14,28c.33,0,.67,0,1,0c1.56-13.52,2.93-10.93,10-18c-1.33-.67-2.67-1.33-4-2c-2.24,1.54-4,2.09-4,5c-.67,.33-1.33,.67-2,1c0-.33,0-.67,0-1c-2-1-2-1-3-2c10.54-10.54,39-39.85,53-42c-1.33-2.67-2.67-5.33-4-8c-.33,0-.67,0-1,0c-2.68-5.98-8.42-10.42-13-15Z"/>
<path d="M729,438c-6.48,0-15.94-6.19-22.51-8.34c-5.71-1.87-13.54-1.87-18.49-3.66c-12.7-4.6-24.81-10.05-37.82-14.13c-17.56-5.5-38.94-9.53-55.18-16.87c-6.19-2.8-20.88-10.99-27-12c-1.58-.26-4.56,.62-6,0c-46.38-20.07-90.14-44.17-136.98-64.56c-1.9-.83-4.29,.32-6.02-.44c-4.59-2.04-10.54-7.85-15-10c-7.86-3.79-23.08-7.2-31-11c-8.69-4.17-16.77-9.59-26-13c-9.6-3.55-26.31-5.79-35-11c-4.65,2.71-12.45,6.45-16,10c3.67-.07,9.15-.85,12,2c15.36,2.1,28.69,10.77,43,15c-9.04,2.8-22.43,1.06-32,1c-2.41,2.41-3.73,2.17-7,2c1,2,1,2,4,4c-.67,0-1.33,0-2,0c24.69,13.3,51.94,22.44,77.33,34.74c34.58,16.75,68.4,34.15,103.37,50.83c20.14,9.61,41.55,17.63,61.95,26.97c5.18,2.37,9.07,1.94,14.35,5.46c14.14,2.36,29.47,9.13,43,14c32.87,11.84,105.92,23.54,122,58c8.05,8.05,8.14,24.44,8,35c10.29-5.15,25.71-18.71,34-27c2.59-17.28-3.74-32.41-14-45c-11.56-7.71-21.68-16.29-35-22Zm10,55c-.33,0-.67,0-1,0c.18-6.5-.52-27.13-4.19-32.1c-3.47-4.7-36.6-1.45-42.81,.1c-4.55-5.58-8.82-16.9-10-24c20.45,2.79,69.84,22.52,77,44c3.92,7.57,5.14,14.61,6,23c-5.03,0-20.34-7.89-25-11ZM355,302c11.14,3.29,37.35,13.64,46,21c-2.66,2.66-35.17,1.03-41,1c-.87-6.71-2.86-15.59-5-22Zm102,47c-10.55,3.52-32.86-.07-45,0c-1.42-7.21-2.09-14.99-4-22c15.91,1.81,33.27,17.35,49,22Zm54,26c-15.33,0-30.67,0-46,0c0-6.85-2.76-17.27-5-24c11.83,3.76,42.76,15.76,51,24Zm57,24c-16.33,0-32.67,0-49,0c-.86-7.44-4-14.47-4-22c11.59,1.32,42.88,15.25,53,22Zm1,1c17.29,1.66,35.37,14.06,53,17c0,.66,0,1.32,0,2c-16.17-.21-31.71,3.2-48,3c-.57-5.72-2.51-17.01-5-22Zm56,19c13.49,1.56,40.15,9.42,52,16c0,.66,0,1.32,0,2c-15.14-.29-29.93,4.31-45,4c-2.38-7.15-5.99-14.59-7-22Z"/>
<path d="M560,428c-25.82-8.61-51.06-23.2-75.86-34.54C455.57,380.4,428.06,367.82,400,353c-15.44-8.16-33.28-12.92-49-21c-17.95-9.23-39.15-22.11-58.4-28.29c-8.15-2.62-16.88-3.24-24.6-5.71c-4.33,2.01-14.19,6.57-17,10c26.97-1.04,59.41,17.47,82,30c12.34,6.84,27.06,11.32,39.81,17.24C397.45,366.69,421.63,381.68,446,393c1.91,.89,4.43-.41,6.81,.78c27.27,13.59,56.24,29.93,84.76,40.18C555.92,440.55,656.69,469.69,665,478c10.58-.72,20.92,11,29,11c6.93,3.13,21.47,15.42,24,23c8.63,10.2,6.66,23.95,7,36c4.44-3.52,8.99-6.99,13-11c.25-16.4-3.05-22.16-8-37c-7.61-5.07-13.57-14.7-22-20c-22.93-14.44-49.86-16.81-74-27c-23.11-9.75-50.06-19.01-74-25Z"/>
<path d="M276,435c-16.17-5.84-31.7-16.16-47.33-23.31c-10.64-4.87-26.31-7.9-36.67-13.69c-12.38-6.91-33.41-15.48-47.18-16.98c-9.11-.99-16.88,1.15-25.82,.98c-5.31,1.77-26,22.11-26,27c23.23-7.74,35.78-.56,58,2c0,.33,0,.67,0,1c3.34,.56,6.03,1.35,9,3l1,1c8.08,1.35,20.18,6.45,27,11l2,1c9.53,3.7,44.9,23,51,23c18.02,6.51,35.68,17.66,53,26l5,2c3.4,1.23,13.77,5.77,16,8c6.75,2.63,13.52,5.76,20,9l4,2c5.8,1.76,39.06,16.06,42,19l2,1c13.74,2.75,31.3,13.67,45,19l2,1c15.26,6.28,31.27,11.64,46,19c29.22,9.74,54.25,22.12,82,35l2,2c13.17,4.39,30.23,27.15,35,40h1c3.27,0,.17-10.35,1-14c.67,0,1.33,0,2,0c3.14,6.77,5.5,11.82,8,19c4.22-6.33,11.77-16.39,18-19c0-5.76-6.01-13.5-8-19c-2.77-4.86-5.94-9.14-10-13c-23.1-23.1-47.29-26.15-74-40l-1-1c-.64-.64-11.22-3.72-13-4c-2.64-1.41-5.07-2.37-8-3c-13.7-7.09-31.78-9.39-45-17c-7.22-4.15-25.09-13.93-33-15c-2.95,0-10.95-3.31-14-5c-9.33,0-64.44-32.48-78-37c-2.25,0-2.25,0-6-2c-6.68-5.44-48.62-25.23-58-28l-1-1Z"/>
<path d="M548,691c-.33-.67-.67-1.33-1-2c-7.13,0-34.52-28.18-43.06-33.87c-4.82-3.22-72.08-34.79-74.94-35.13c-2.92-.35-6.71,2.54-9,4c-2.43-4.86-65.25-31.38-75-37c-10.24-5.9-20.24-13.8-30.87-18.54c-19.49-8.68-40.03-15.24-59.2-22.94c-9.08-3.65-14.46-8.47-24.93-9.52c0-3.86-2.67-4.73-5.88-6c-24.2-9.56-72.92-27.92-91.12-42c-3.65-2.82-14.25-2.22-18,0c-.33-.67-.67-1.33-1-2c1-.33,2-.67,3-1c0-.67,0-1.33,0-2c-8.72,4.67-12.28,6.71-16,17c5.47,5.63,12.99,10.73,20,14c5.79,1.84,12.59,4.29,18,7l3,2c19.72,2.24,64.67,25.34,84,35c6.77,2,19.58,7.58,25,12c8.72,1.21,21.94,13,29,13l1,1c10.21,3.32,24.11,9.08,33,15l3,2c13.67,4.04,37.13,16.09,49,24l4,2c20,5.91,43.07,19.54,62,29l3,2c14.59,4.31,30.11,14.31,44,21l1,1c10.95,3.24,27.29,16,38,16c6.36,1.24,11.44,2.13,18,2c5.04-1.68,8.37-2.97,12-7Z"/>
<path d="M785,583c-.33,0-.67,0-1,0c4.18-26.28,2.39-38.59-16-58c-4.05,3.26-8.4,6.22-12,10c22.2,6.98,16.62,34.39,17,51c-6,0-11.21,4.88-16,3c3.38-11.45,11.43-21,14-33c-8.17-1.36-21.75-4.97-29-9c0-.33,0-.67,0-1c-2.44,1.93-4.8,3.8-7,6c18.25,6.76,22.3,41.11,17,57c11.56-7.71,21.72-17.76,33-26Z"/>
<path d="M747,613c-.33,0-.67,0-1,0c5.79-23.17,1.41-41.53-17-56c-5.93,6.53-15.86,14.25-23,19c-20.28,13.5-39.36,38.6-57.02,55.8c-11.25,10.95-27.17,23.4-36.37,35.7c-1.69,2.25-.37,7.82-1.11,10.8c-4.96,20.03-12.91,38.11-29.17,51.2c-12.15,9.77-34.99,16.43-50.33,11.5c26.12,14.06,69.61,10.09,87-16c2.57-16.88-.83-41.09,3.69-56.08c2.8-9.28,43.14-42.75,52.31-51.92c13.89,12,10.14,34.13,8,50c5.8-5.8,13.3-9.99,19-16c0-22.34-3.27-25.68-11-45c-.05-.11-.05-2.89,0-3c3.38-8.21,28.17-25.79,36-32c13.82,12.44,8.89,36.76,7,53c4.44-3.52,8.99-6.99,13-11Z"/>
<path d="M258,632c-4.33-1.44-5.02-3.26-10-3c0,3.62-6.65,13.08-7.85,17.22C238.18,653,238.92,662.83,239,670c2.33,1.21,4.5,2.17,7,3c2.59-7.78,2.21-15.88,4.26-23.63c1.71-6.46,5.52-11.34,7.74-17.37Z"/>
<path d="M339,672c-3.55,16.56-22.93,35.79-2,48c-.35-15.51,5.87-30.79,12-44c-3.95-1.32-5.56-3.3-10-4Z"/>
<path d="M419,747c-.14,11.34,.15,13.3,5,23c2.17-2.17,3.25-.75,5,1c-.23-20.72,3.96-25.78,7-44c1.02-.34,2.01-.67,3-1c-.86-5.36-16.19-13.19-22-14c0,4.17-4.05,11.18-5.5,15.3c-3.73,10.59-4.56,22.64-2.5,33.7c3.19,.5,4.63,.63,7,3c-.26-6.45,1.56-10.92,3-17Z"/>
</g>
<g fill="#DBC09B">
<path d="M556,281c0-4.68,3.51-4.54,5-9c2.79,0,52.64-35.28,54-38c-6.02-.35-9.88-.36-12,6c-26.92-3.53-38.88,27.26-60,36c5.61,.62,7.93,4.13,13,5Z"/>
<path d="M676,254c-10.88-5.83-32.65,5.31-38,16c2.35,.91,7.83,4.14,9.99,3.99c1.69-.12,24.84-17.52,28.01-19.99Z"/>
<path d="M657,271c0,.68,0,1.34,0,2c2.94,1.52,5.92,2.8,9,4c6.07-6.07,16.61-13.66,24-17c0-17.63-27.95,9.32-33,11Z"/>
<path d="M670,326c11.61,0,14.93-14.32,25-16c-15.36-7.68-23.11,1.79-34,13c4.03-.34,5.98,.32,9,3Z"/>
<path d="M665,478c-8.31-8.31-109.08-37.45-127.43-44.04c-28.52-10.25-57.49-26.59-84.76-40.18c-2.38-1.19-4.9,.11-6.81-.78c-24.37-11.32-48.55-26.31-73.19-37.76c-12.75-5.92-27.47-10.4-39.81-17.24c-22.59-12.53-55.03-31.04-82-30c-16.19,4.78-30.69,16.89-46,24c7.88-.09,18.09-.76,25.53,2.05C249.44,341.19,394.57,404.71,397,412c14.02,1.83,52.71,25.42,68.32,32.63c7.29,3.36,17.52,5.53,24.68,8.37c41.15,16.31,82.09,30.97,123.76,44.56C621.97,500.24,653.55,515,659,515c5.56-5.56,11.09-9.08,17-14c-3.06-1.98-4.48-3.26-5-7c2.94,1.52,5.92,2.8,9,4c4.34-3.65,8.25-7.97,14-9c-8.08,0-18.42-11.72-29-11Zm0,0c-.33,1.33-.67,2.67-1,4c-6.59,.91-19.57,16.35-26,21c0-3.58,4.04-8.52,7-10c-6.34-12.69-19.8,7.07-26,5c3.88-3.88,12.28-9.75,13-15c7.65,0,11.19-10.6,19-8c-4.45,3.53-8.98,6.98-13,11c3.04,.54,7.7,4.6,9.94,4.06C653.45,488.74,657.48,478,665,478Z"/>
<path d="M326,394c-15.91-12.96-95.03-45.72-115-50.35c-8.51-1.98-16.33-1.74-25-1.65c-17.91,5.29-53.72,26.72-67,40c8.94,.17,16.71-1.97,25.82-.98c13.77,1.5,34.8,10.07,47.18,16.98c10.36,5.79,26.03,8.82,36.67,13.69C244.3,418.84,259.83,429.16,276,435c-.33-.33-.67-.67-1-1c4.97-6.35,11.41-9.41,17-15c-2.98-1.98-5.6-2.94-9-4c4.89-1.63,7.76,3.13,11.3,1.72c7.77-3.09,25.01-17.11,31.7-22.72Z"/>
<path d="M842,389c1.23-1.23,5.09-1.98,7-3c-3.81-5.92,1.18-12.68,8-10c-6.49-7.1-10.8-1.5-16,4c.67,.33,1.33,.67,2,1c-.33,1.33-.67,2.67-1,4c-2.14-2.46-3.78-3.44-7-4c1.94-2.91,8-6.79,9-9c.66-1.47-.73-3.95-2.07-4.23c-8.74-1.87-12.4,3.47-19.93,7.23c6.81,2.82,13.68,9.78,20,14Z"/>
<path d="M349,406c-2.55-5.09-13.14-6.9-18-10c-8.98,1.5-13.88,6.88-20,13c1.67,.33,3.33,.67,5,1c-.33,.67-.67,1.33-1,2c-4.91-1.23-13-3.16-13,5c6.97,.98,13.22,2.56,17-5c1.33,.33,2.67,.67,4,1c-3.71,3.92-8.09,5.7-11,10c11.06,5.53,28.46-8.46,37-17Z"/>
<path d="M385,422c-3.85,0-24-10.37-28-13c-3.91,2.61-8.68,2.64-13.06,4.97C334.48,419,322.41,427.49,314,434c-2.65,2.05-1.15,5.66-6.91,5.97c-.36,.01-.72,.02-1.09,.03c-.45-.13-.67-.67-1-1c1.48-2.96,8.2-7.2,11-10c-6.54-6.54-7.68-3.63-14,1c1.21-3.63,3.62-6.25,5-10c-2.7-.52-7.07-2.3-9.63-1.59c-2.43,.68-19.33,15.52-20.37,17.59c9.38,2.77,51.32,22.56,58,28c4.18,0,14.9-12.12,13-19c5,2.5,5,2.5,6,3c4.81-4.81,10.39-8.13,15-13c-7.8-3.9-6.27-3.7-15-2c2.82-2.82,5.19-4.73,9-6c0,12.77,19.41,.19,22-5Z"/>
<path d="M456,457c0-3-6.77-3.12-9-3c-.32-.97-51.76-27.51-57-28c-16.37,6.37-36.32,24.32-49,37c.33,.33,.67,.67,1,1c-.33,.67-.67,1.33-1,2c13.56,4.52,68.67,37,78,37c7.86-2.91,11.51-13.17,20-16c0-16.54-22.41,7.41-26,11c-.33-.67-.67-1.33-1-2c9.61-12.18,39.12-26.79,44-39Z"/>
<path d="M581,505c-3.7-2.47-120.23-45.1-122-45c-1.89,3.78-17.56,14.93-22,17c1.51,4.53,5.4,5,10,5c-5.29,6.43-5.29,6.43-8,9c1.67,1.33,3.33,2.67,5,4c3.88-1.8,6.98-3.98,10-7c0,5.55-15.45,18.15-21,20c7.91,1.07,25.78,10.85,33,15c13.22,7.61,31.3,9.91,45,17c1.86-.62,3.01-1,5-1c4.14-8.88,14.77-14.12,21-22c-.67-1.33-1.33-2.67-2-4c7.91,.86,5.47,2.58,11,6c13.38,8.27,25.53-4.53,35-14Z"/>
<path d="M660,540c-13.98-13.98-54.09-31.01-73-34c-11.5,0-36.14,29.94-46.06,37.95c-2.53,2.04-6.46,2.57-7.94,4.05c26.71,13.85,50.9,16.9,74,40c4.84,0,15-12.14,15-17c.67,.67,1.33,1.33,2,2c12.51-9.73,24.84-21.84,36-33Z"/>
<path d="M532,547c6.34-2.11,17.84-14.84,23-20c-8.84-8.84-21.84,11.34-29,17c0-9.02,18-15.02,18-23c-7.57-1.65-27.5,14.49-25,22c1.78,.28,12.36,3.36,13,4Z"/>
<path d="M843,290c-5.39,0-12.81-4.01-18.2-5.25c-27.5-6.33-56.29-19-83.8-22.75c-3.7,5.55-24.08,14.93-31,20c-.67-.67-1.33-1.33-2-2c2.94-2.53,10.27-8.09,13-9c-.33-1.33-.67-2.67-1-4c-3.7-.56-8.11-1.71-11.77-.4C701.92,268.85,669,294.56,669,299c4.19,.55,4.76,1.63,8,3c3.68,1.56,22.34-15.37,28-18c0,8.26-20,13.15-20,21c2.33,0,4.67,0,7,0c2.02,4.04,4.49,2.24,8,4c-6.5,5.11-19.38,11.13-22,19c5.05,2.99,13.35,4.01,19,5c2.69,.47,3.95,3.09,6,4c5.01,2.22,14.06,3.6,19.88,5.72c6.43,2.34,14.52,3.12,21.36,4.34c2.04,.36,3.68,2.88,6.06,3.56c23.45,6.61,46.04,11.33,66.7,23.38c5.12-.71,24.71-16.42,27-21c-8.19-1.82-11.25-5.75-18,2c-.67-1-1.33-2-2-3c-4.61,1.65-9.15-1.34-14-2c0-4.26,6.9-5.81,9-10c-.67-.33-1.33-.67-2-1c10.79-7.19,23.8-22.47,36-26c.33,1,.67,2,1,3c-9.18,4.29-22.78,14.78-30,22c2.42,1.21,6.37,3.75,9,4c4.31,.42,29.52-21.52,34-26c-6.43-6.43-40-10-44-14c5.75-5.75,12.81-8.27,20-12Z"/>
<path d="M595,297c6.62-6.62,27.45-24.73,36-26c-13.91-15.3-25.85,10.62-39,15c0,1,0,2,0,3c-3.67,.83-5.64,2.37-9,4c4.71,.65,7.53,4,12,4Z"/>
<path d="M665,280c0,16.05,29.28-3.97,32-9c.32-.59,.32-1.41,0-2c-5.9-11-25.95,9.29-32,11Z"/>
<path d="M728,429c-3.84-4.92-76.64-27.5-83-26c-.96-2.88-1.7-4.37-5-5c-5.75-1.1-25.07-5.05-30-8c-1.26-.75-2.76-3.56-4-4c-8.99-3.19-20.46-4.41-29-8c-1.32-.56-2.7-3.55-4-4c-4.47-1.56-13.81-2.93-18-5c-1.02-.5-1.93-3.48-3-4c-1.89-.93-6.1,1.01-8,0c-1.28-.68-1.97-4.24-3-5c-1-.74-17.89-5.16-20-5c-.85-2.63-49.08-25.46-53-25c-3.03-6.06-58.74-27.73-68-32c-1.96-.9-3.65-4.39-6-5c-4.85-1.25-12.88-2.99-17.41-5.41c-1.91-1.02-2.82-3.71-4.59-4.59c-1.54-.77-6.32,1.12-8,0c-1.18-.79-1.82-4.21-3-5c-1.72-1.15-6.21,.67-8,0c-1.33-.5-2.65-3.42-4-4c-7.91-3.42-18.39-3.45-27-6c-2.57,.93-8.01,5-10,5c8.69,5.21,25.4,7.45,35,11c9.23,3.41,17.31,8.83,26,13c7.92,3.8,23.14,7.21,31,11c4.46,2.15,10.41,7.96,15,10c1.73,.76,4.12-.39,6.02,.44C471.86,338.83,515.62,362.93,562,383c1.44,.62,4.42-.26,6,0c6.12,1.01,20.81,9.2,27,12c16.24,7.34,37.62,11.37,55.18,16.87C663.19,415.95,675.3,421.4,688,426c4.95,1.79,12.78,1.79,18.49,3.66c6.57,2.15,16.03,8.34,22.51,8.34c-1-.33-2-.67-3-1c0-1.67,0-3.33,0-5c1.33-.33,2.67-.67,4-1c-.67-.67-1.33-1.33-2-2Z"/>
</g>
<path d="M308,285c-2.85-2.85-8.33-2.07-12-2c-5.72,2.07-14.72,6.72-19,11c11.46,1.56,26.67,7.65,37,13c.67,0,1.33,0,2,0c-3-2-3-2-4-4c3.27,.17,4.59,.41,7-2c-3.33,0-6.67,0-10,0c-.59-5.02-2.55-11.16-1-16Z" fill="#9F8765"/>
<path d="M319,301c9.57,.06,22.96,1.8,32-1c-14.31-4.23-27.64-12.9-43-15c-1.55,4.84,.41,10.98,1,16c3.33,0,6.67,0,10,0Z" fill="#D5B992"/>
<path d="M640,316c9.51-9.51,23.2-16.45,32-26c-3.48-1.74-8.06-4.94-12.08-4.27c-3.35,.56-30.29,21.64-33.92,25.27c2.91,.75,12.46,5,14,5Z" fill="#DBC09B"/>
<path d="M955,351c0-21.82-92.92-57.82-112-61c-7.19,3.73-14.25,6.25-20,12c4,4,37.57,7.57,44,14c-4.48,4.48-29.69,26.42-34,26c-2.63-.25-6.58-2.79-9-4c7.22-7.22,20.82-17.71,30-22c-.33-1-.67-2-1-3c-12.2,3.53-25.21,18.81-36,26c.67,.33,1.33,.67,2,1c-2.1,4.19-9,5.74-9,10c4.85,.66,9.39,3.65,14,2c.67,1,1.33,2,2,3c6.75-7.75,9.81-3.82,18-2c-2.29,4.58-21.88,20.29-27,21c3.87,1,3.87,1,5,1c7.53-3.76,11.19-9.1,19.93-7.23c1.34,.28,2.73,2.76,2.07,4.23c-1,2.21-7.06,6.09-9,9c3.22,.56,4.86,1.54,7,4c.33-1.33,.67-2.67,1-4c-.67-.33-1.33-.67-2-1c5.2-5.5,9.51-11.1,16-4c-6.82-2.68-11.81,4.08-8,10c-1.91,1.02-5.77,1.77-7,3c3.28,4.38,6.56,8.74,10,13c9.12-3.04,27.38-22.77,37-29c6.35-4.11,10.12-1.68,15.92-4.17c12.66-5.46,20.11-14.47,34.6-17.6c5.26-1.14,9.76,1.35,15.48-.23Z" fill="#D5B992"/>
<g fill="#DBC09B">
<path d="M314,307c-10.33-5.35-25.54-11.44-37-13c-3.4,1.06-6.01,2.01-9,4c7.72,2.47,16.45,3.09,24.6,5.71c19.25,6.18,40.45,19.06,58.4,28.29c15.72,8.08,33.56,12.84,49,21c28.06,14.82,55.57,27.4,84.14,40.46C508.94,404.8,534.18,419.39,560,428c1.33,0,2.67,0,4,0c.33-1,.67-2,1-3c2.19,.51,3.99,.99,6,2c0-.67,0-1.33,0-2c-5.28-3.52-9.17-3.09-14.35-5.46c-20.4-9.34-41.81-17.36-61.95-26.97c-34.97-16.68-68.79-34.08-103.37-50.83C365.94,329.44,338.69,320.3,314,307Z"/>
<path d="M355,302c2.14,6.41,4.13,15.29,5,22c5.83,.03,38.34,1.66,41-1c-8.65-7.36-34.86-17.71-46-21Z"/>
<path d="M457,349c-15.73-4.65-33.09-20.19-49-22c1.91,7.01,2.58,14.79,4,22c12.14-.07,34.45,3.52,45,0Z"/>
</g>
<g fill="#675D52">
<path d="M659,515c-5.45,0-37.03-14.76-45.24-17.44C572.09,483.97,531.15,469.31,490,453c-7.16-2.84-17.39-5.01-24.68-8.37c-15.61-7.21-54.3-30.8-68.32-32.63c-2.43-7.29-147.56-70.81-166.47-77.95c-7.44-2.81-17.65-2.14-25.53-2.05c-5.8,1.71-14.86,5.86-19,10c8.67-.09,16.49-.33,25,1.65c19.97,4.63,99.09,37.39,115,50.35c1.67,.33,3.33,.67,5,1c0,.33,0,.67,0,1c4.86,3.1,15.45,4.91,18,10c3.37,.55,5.08,1.05,8,3c4,2.63,24.15,13,28,13c3.87,1.75,3.87,1.75,5,4c5.24,.49,56.68,27.03,57,28c2.23-.12,9,0,9,3l3,3c1.77-.1,118.3,42.53,122,45c2,0,4,0,6,0c0,.33,0,.67,0,1c18.91,2.99,59.02,20.02,73,34c5.81,4.55,6.82,6.64,10,13c8.43,8.43,7.11,26.04,7,37c5.79-4.5,11.82-9.82,17-15c-.33,0-.67,0-1,0c.27-14.19-2.85-21.94-7-35c-8.75-11.66-15.88-16.26-27-25Z"/>
<path d="M512,809c-2.56-7.97,.75-7.92,7-10c2.37-11.86,4.55-22.1,10-33c-2.53-3.09-5.22-3.91-9-5c-2.73,8.18-17.19,38.81-8,48Z"/>
</g>
<g fill="#DBC09B">
<path d="M511,375c-8.24-8.24-39.17-20.24-51-24c2.24,6.73,5,17.15,5,24c15.33,0,30.67,0,46,0Z"/>
<path d="M568,399c-10.12-6.75-41.41-20.68-53-22c0,7.53,3.14,14.56,4,22c16.33,0,32.67,0,49,0Z"/>
<path d="M569,400c2.49,4.99,4.43,16.28,5,22c16.29,.2,31.83-3.21,48-3c0-.68,0-1.34,0-2c-17.63-2.94-35.71-15.34-53-17Z"/>
</g>
<g fill="#9F8765">
<path d="M852,471c18.18,18.18,12.33,21.15,19,42c43.66-32.34,105.45-70.02,96-133c-1.4-9.33-4.66-22.66-12-29c-5.72,1.58-10.22-.91-15.48,.23c-14.49,3.13-21.94,12.14-34.6,17.6c-5.8,2.49-9.57,.06-15.92,4.17c-9.62,6.23-27.88,25.96-37,29c8.31,12.85,8,23.55,8,38c17.23-12.76,60.82-55.51,83.44-46.54c19.97,7.91,5.53,29.23-12.44,28.54c-1,.33-2,.67-3,1c3.02,1.01,3.22,1.34,5,4c-5.1-1.98-10.33-5.81-15.98-4.31c-9.18,2.44-56.98,40.27-65.02,48.31Z"/>
<path d="M849,446c3.24-9.71,1.4-29.6-6-37c-4.72,0-6.86,3.86-10,7c1.33,2.67,2.67,5.33,4,8c3.57,8.32,5.99,24.01,1,32c3.85,0,11-6.01,11-10Z"/>
<path d="M146,452c-11.57-3.86-22.28-7.92-34-10c1.28-4.38,3.33-10.67,0-14c-2.31,4.62-3.4,7.83-4,13c-6.75-.18-12.58-.48-19,2c0-4.67,0-9.33,0-14c-5.26,5.26-8.61,17.07-10,24c-1,0-2,0-3,0c-.33-2.33-.67-4.67-1-7c-7.47,12.14,.08,62,17,62c-.16-3.58,2.03-7.96,1.78-10.42c-1.36-13.5-11.06-28.84,10.76-34.58c9.91-2.62,22.97,1.86,32.53,5.2C171.13,480.1,206.38,499.75,238,517c53.88,29.4,114.06,55.77,170.06,79.88c34.2,14.72,76.36,27.24,107.99,47c16,10,33.95,19.01,33.95,41.12c6.36,6.36,7.32,9.65,17,9c-1.97,7.55-5.2,9-13,9c0,2.93-.07,2.93,2,5c-2.1,3.15-5.48,3.96-7,7c-3-1-3-1-4-2c0,1.67,0,3.33,0,5c-1,.33-2,.67-3,1c2,2,2,2,6,3c-5.67,0-11.33,0-17,0c-3.09-9.28-6.58-12.12-4-23c3,0,6,0,9,0c0-.33,0-.67,0-1c-6.56,.13-11.64-.76-18-2c.77,4.9,3.33,7.46,5,12c-6.08-1.58-9.05-1-15-1c-1.7-5.09-7.16-5.42-12-7c0-2,0-4,0-6c-1.42,1.42-1.57,3.11-2,5c-3.01-1.83-4.62-2.21-8-1c-1.15-3.46-1.34-3.41-5-4c-1.23-4.92,.22-9.14-1-14l-1-1c0,.77-2.78,10.78-3,11c-4.61-1.54-5.89-5.01-11-3c.05,2.06,.57,4.43-1,6c-2.45-2.45-3.62-2.13-7-3c-.55-4-.3-11.15-4-13c0,4.33,0,8.67,0,13c-1.67-.33-3.33-.67-5-1c-4.35-13.04-1.64-16.43-16-21c1.13-3.31,2.21-6.59,3-10l-3-2c0,1.13,0,1.13-1,8c-1.33,.33-2.67,.67-4,1c0,.67,0,1.33,0,2c-4.13-1.47-7.62-3.38-11,0c-3.24-3.24-6.13-3.32-8-8c-3.97,3.97-9.56-2.86-10-7c-10.47-1.37-19.69-8.79-30-12c-.18-4.76-.5-8.72,2-13l-4-2c-1.27,3.82-2.12,7.12-5,10c-9.3-2.83-16.08-9.71-26-11c-.33,1.33-.67,2.67-1,4c-.67-1-1.33-2-2-3c-.33,.67-.67,1.33-1,2c-1.33-.33-2.67-.67-4-1c0-2,0-4,0-6c-.67-.33-1.33-.67-2-1c0,.67,0,1.33,0,2c-1.74,0-1.79-.21-3,1c-.33-.33-.67-.67-1-1c.33-1,.67-2,1-3c-2.2-2.2-4.12-2.94-7-4c-.18-4.76-.5-8.72,2-13l-3-2c0,23.74-22.56,.59-34-1c-1.41-3.96-.92-7.04,3-9c0-3,0-3-2-5l-1-1c-2.36,3.53-3.01,7.29-5,11c-4.84-2.26-10.67-4.67-14-8c-4.61,1.54-6.75-1.97-11-4c.47-3.99,1-7.98,1-12c-5.42-4.42-18.23-10-25-12c0,2.78-2.54,7.61-3,11c-1.67-.33-3.33-.67-5-1c-.33-1-.67-2-1-3c-2.64,2.64-6.51-.39-9-2c-1.15,2.47-2.05,4.05-4,6c-8.25-8.25-16.2-18.22-29-20c0-2.62-.31-4.51-1-7c-1.63,1.71-2.87,2.93-5,4c-2.68-2.68-4.41-2.16-8-2c0,2,0,4,0,6c-3.1-.7-4.9-2-8-2c-.33-2.67-.67-5.33-1-8c-.67,0-1.33,0-2,0c-.67,1.33-1.33,2.67-2,4c-2.49-1.66-2.96-2-6-2c-1.12-2.25-1.12-2.25,0-6c.67,.67,1.33,1.33,2,2c.33-1,.67-2,1-3c-1-.33-2-.67-3-1c0-3.67,0-7.33,0-11l-3-2c0,3.28-.63,6.73-1,10c-3.66,0-5.96-4.18-8-7c-.69,6.3-.84,5.84-5,10c-.33-.33-.67-.67-1-1c.67-.67,1.33-1.33,2-2c-1,0-2,0-3,0c-.44-3.92-.74-6.45-4-9c-1.33,1.33-2.67,2.67-4,4c-1.66-2.49-2.39-4.07-3-7c-.83,2.5-1.79,4.67-3,7c-.1-3.49,.22-6.59,1-10c3.63,0,7.42-1.3,11-2c-7.01-3.27-14.53-8.37-20-14c-5.11,13.74-4.09,25.91,5.01,37.25c15.59,19.44,81.57,42.18,106.55,53.14c60.08,26.36,120.96,54.2,179.66,83.01c38.62,18.95,77.13,39.18,117.52,54.43c14.29,5.39,34.13,9.86,49.05,5.04c33.93-10.97,45.36-48.71,42.27-81.5c-.55-5.76-5.06-12.3-5.06-17.37h-1c0,1.94-3.96,6.75-5,9c-1.96-1.51-3.78-2.89-6-4c0,5.04-1.64,5.45-6,4c1.17,4.03,1.84,5-3,5c-.33,1-.67,2-1,3c-1,0-2,0-3,0c-2.59,5.19-2.01,10.31-6,15c-11.4-34.19-66.31-47.62-71-57c-9.72,0-20.86-12.27-30-9c-.33-1.33-.67-2.67-1-4c-3.13,1.04-39.63-13.9-41-18c1.33-1.33,2.67-2.67,4-4c-5.16,0-5.07,4.57-10.07,3.88c-19.1-2.64-34.59-22.77-54.93-18.88c0-2.33,0-4.67,0-7v-1c-1.68,.56-108.32-47.12-115.79-53.04c-3.43-2.72-4.37-.78-5.21-5.96c-4.8,3.2-8.75-.29-14-2c-.67,.67-1.33,1.33-2,2c-12.18-12.18-68.84-32.51-72-42c-2,.67-4,1.33-6,2Z"/>
<path d="M739,493c4.66,3.11,19.97,11,25,11c-.86-8.39-2.08-15.43-6-23c-3.75,7.49-14.47,7.47-19,12Z"/>
<path d="M725,548c-.34-12.05,1.63-25.8-7-36c-10.86,7.86-22.69,18.34-32,28c4.15,13.06,7.27,20.81,7,35c.33,0,.67,0,1,0c9.39-9.39,20.67-18.59,31-27Z"/>
<path d="M794,575c6.86-20.57-2.05-38.76-15-53c-1.33-1-2.67-2-4-3c-2.2,2.2-4.56,4.07-7,6c18.39,19.41,20.18,31.72,16,58c.33,0,.67,0,1,0c3.21-2.5,6.17-5.07,9-8Z"/>
<path d="M742,546c0,.33,0,.67,0,1c7.25,4.03,20.83,7.64,29,9c-2.57,12-10.62,21.55-14,33c4.79,1.88,10-3,16-3c-.38-16.61,5.2-44.02-17-51c-4.77,3.53-9.37,7.29-14,11Z"/>
<path d="M734,624c1.89-16.24,6.82-40.56-7-53c-7.83,6.21-32.62,23.79-36,32c-.05,.11-.05,2.89,0,3c7.73,19.32,11,22.66,11,45c9.65-9.65,21.4-18.13,32-27Z"/>
</g>
<g fill="#D5B992">
<path d="M843,409c-2.6-7.79-9.73-13.02-16-18c-1.7,4.17-4.9,6.9-8,10c4.58,4.58,10.32,9.02,13,15c.33,0,.67,0,1,0c3.14-3.14,5.28-7,10-7Z"/>
<path d="M665,478c-7.52,0-11.55,10.74-17.06,12.06c-2.24,.54-6.9-3.52-9.94-4.06c4.02-4.02,8.55-7.47,13-11c-7.81-2.6-11.35,8-19,8c-.72,5.25-9.12,11.12-13,15c6.2,2.07,19.66-17.69,26-5c-2.96,1.48-7,6.42-7,10c6.43-4.65,19.41-20.09,26-21c.33-1.33,.67-2.67,1-4Z"/>
</g>
<g fill="#DBC09B">
<path d="M160,415c-2.97-1.65-5.66-2.44-9-3c-5.19,5.19-14.31,22.1-16,30c3.54-.2,5.91,.17,9,2c3.1-9.73,8.7-21.7,16-29Z"/>
<path d="M188,427c-6.82-4.55-18.92-9.65-27-11c1,1,2,2,3,3c-5.49,1.73-8.89,6.47-10,12c1,.33,2,.67,3,1c-8.48,1.7-10.25,12.53-11,20c2-.67,4-1.33,6-2c13.93-3.98,7.63-17.11,25-9c1.59-4.77,5.82-14,11-14Z"/>
<path d="M241,451c-6.1,0-41.47-19.3-51-23c-5.25,5.25-14.18,12.99-3,17c2.19-2.19,3.69-4.8,6-7c1.43,3.64-2.78,12.3-4,17c3.3,.89,6.62,1.46,10,2c.89-6.52,4.9-16.44,11-19c-1.59,5.23-4.41,8.79-6,14c2.89,0,4.11-1,7-1c.67-1.33,1.33-2.67,2-4c1.97,1.32,2.55,2,5,2c.33-1.33,.67-2.67,1-4c1,2,2,4,3,6c6.36-1.37,14.12,2.44,19,0Z"/>
</g>
<path d="M931,422c-2.48-.64-25.63-5.68-25.83-5.63C897.2,418.53,850.66,458.13,843,466c3.57,1.19,5.72,3.36,9,5c8.04-8.04,55.84-45.87,65.02-48.31c5.65-1.5,10.88,2.33,15.98,4.31c-1.78-2.66-1.98-2.99-5-4c1-.33,2-.67,3-1Z" fill="#675D52"/>
<path d="M625,419c1.01,7.41,4.62,14.85,7,22c15.07,.31,29.86-4.29,45-4c0-.68,0-1.34,0-2c-11.85-6.58-38.51-14.44-52-16Z" fill="#DBC09B"/>
<g fill="#D5B992">
<path d="M390,426c-1.13-2.25-1.13-2.25-5-4c-2.59,5.19-22,17.77-22,5c-3.81,1.27-6.18,3.18-9,6c8.73-1.7,7.2-1.9,15,2c-4.61,4.87-10.19,8.19-15,13c-1-.5-1-.5-6-3c1.9,6.88-8.82,19-13,19c3.75,2,3.75,2,6,2c.33-.67,.67-1.33,1-2c-.33-.33-.67-.67-1-1c12.68-12.68,32.63-30.63,49-37Z"/>
<path d="M736,497c-16.08-34.46-89.13-46.16-122-58c-13.53-4.87-28.86-11.64-43-14c0,.67,0,1.33,0,2c-2.01-1.01-3.81-1.49-6-2c-.33,1-.67,2-1,3c-1.33,0-2.67,0-4,0c23.94,5.99,50.89,15.25,74,25c24.14,10.19,51.07,12.56,74,27c8.43,5.3,14.39,14.93,22,20c.33-1.33,.67-2.67,1-4c1.67,.33,3.33,.67,5,1Z"/>
<path d="M772,455c0-8.13-36.96-26.26-44-26c.67,.67,1.33,1.33,2,2c-1.33,.33-2.67,.67-4,1c0,1.67,0,3.33,0,5c1,.33,2,.67,3,1c13.32,5.71,23.44,14.29,35,22c2.69-2.25,4.65-3.88,8-5Z"/>
<path d="M758,481c-7.16-21.48-56.55-41.21-77-44c1.18,7.1,5.45,18.42,10,24c6.21-1.55,39.34-4.8,42.81-.1c3.67,4.97,4.37,25.6,4.19,32.1c.33,0,.67,0,1,0c4.53-4.53,15.25-4.51,19-12Z"/>
</g>
<path d="M787,483c-.33,0-.67,0-1,0c.31-13.14-5.54-19.54-14-28c-3.35,1.12-5.31,2.75-8,5c10.26,12.59,16.59,27.72,14,45c9.29-6.53,11.59-10.68,9-22Z" fill="#9F8765"/>
<path d="M299,479l-5-2c-1.33-.33-2.67-.67-4-1c-4.8,10.35-11.28,15.97-13,28c3.54-3.94,10.07-8.64,15-7c.75-5.4,4.25-9.74,6-15c.67,0,1.33,0,2,0c-.33-1-.67-2-1-3Z" fill="#DBC09B"/>
<g fill="#D5B992">
<path d="M718,512c-2.53-7.58-17.07-19.87-24-23c-5.75,1.03-9.66,5.35-14,9c-3.08-1.2-6.06-2.48-9-4c.52,3.74,1.94,5.02,5,7c-5.91,4.92-11.44,8.44-17,14c11.12,8.74,18.25,13.34,27,25c9.31-9.66,21.14-20.14,32-28Z"/>
<path d="M432,656c-18.93-9.46-42-23.09-62-29c-2.5,4.28-2.18,8.24-2,13c10.31,3.21,19.53,10.63,30,12c.44,4.14,6.03,10.97,10,7c1.87,4.68,4.76,4.76,8,8c3.38-3.38,6.87-1.47,11,0c0-.67,0-1.33,0-2c1.33-.33,2.67-.67,4-1c1-6.87,1-6.87,1-8Z"/>
</g>
<path d="M744,532c.14-10.56,.05-26.95-8-35c-1.67-.33-3.33-.67-5-1c-.33,1.33-.67,2.67-1,4c4.95,14.84,8.25,20.6,8,37c2.15-1.58,4.11-3.11,6-5Z" fill="#9F8765"/>
<path d="M381,517c-2.94-2.94-36.2-17.24-42-19c-4.51,1.5-11,13.75-11,19c4.88-3.62,10.52-7.1,14-12c.67,.33,1.33,.67,2,1c-.57,1.13-1.13,2.27-1.71,3.4c-8.17,16.13-1.45,7.28,2.71,15.6c2.67-2.67,3.07-4,7-4c-.67,1.67-1.33,3.33-2,5c2.67,.67,5.33,1.33,8,2c1.7-3,3.41-5.66,6-8c0,10.97-1.32,3.37,3,12c5.01-4.84,8.23-11.02,14-15Z" fill="#DBC09B"/>
<path d="M726,731c-8.13-5.42-19.34-8.89-29-10c-4.24,6.36-4.15,22.22-4,30c-7.01,0-14.53-5.98-22-7c-5.15,7.73-6.92,22.71-8,32c-10.11,0-17.37-5.43-28-3c-2.64,15.85-10.38,30.15-10,47c2.38-1.85,7.3-3.89,8.8-6.14c3.26-4.89,6.37-24.68,6.2-30.86c9.77,0,17.65,5.44,27,7c5.9-8.85,7.33-22.5,9-33c7.43,0,14.36,7,23,7c2.29-10.16,3.13-20.63,3-31c8.47,2.82,18.35,7.56,27,9c7.4-19.03,15.35-39.26,15-60c11.46-.22,21.74,1.87,33,3c6.26-9.4,9.22-36.43,9-48c11.25,1.12,22.84,7.31,34,7c-.6-13.12,7.32-27.84,7-42c8.08-2.69,24.07,6.28,34,6c2.75-13.74,3.35-28.59,7-42c9.59,.86,19.41,3.22,29,3c3.35-10.06,4.15-21.47,4-32c7.76,4.22,22.12,7.17,31,7c3.69-11.08,8.23-21,8-33c4.95,0,9.38,4,15,4c-1.76-10.29-6.1-14.5-17-14c0,2.02-4.05,4.09-4.86,6.72c-2.36,7.73-4.03,17.05-5.14,25.28c-11.79-2.53-19.68-3.18-32-3c-3.85,7.55-4.15,18.5-5,27c-5.62,1.87-14.88-.57-21.4,.13c-12.08,1.31-15.99,29.84-15.6,39.87c-30.57-13.1-40.64,8.02-40,36c-8.79,0-19.07-7.83-28-5c-6.41,2.03-14.2,38.86-14,46c-5.39-.86-26.82-4.73-31-1c-4.19,3.73-15.38,51.22-15,58Z" fill="#675D52"/>
<g fill="#D5B992">
<path d="M587,506c0-.33,0-.67,0-1c-2,0-4,0-6,0c-9.47,9.47-21.62,22.27-35,14c-5.53-3.42-3.09-5.14-11-6c.67,1.33,1.33,2.67,2,4c-6.23,7.88-16.86,13.12-21,22c-1.99,0-3.14,.38-5,1c2.93,.63,5.36,1.59,8,3c-2.5-7.51,17.43-23.65,25-22c0,7.98-18,13.98-18,23c7.16-5.66,20.16-25.84,29-17c-5.16,5.16-16.66,17.89-23,20l1,1c1.48-1.48,5.41-2.01,7.94-4.05C550.86,535.94,575.5,506,587,506Z"/>
<path d="M226,558c-19.33-9.66-64.28-32.76-84-35c0,3.67,0,7.33,0,11c1,.33,2,.67,3,1c-.33,1-.67,2-1,3c-.67-.67-1.33-1.33-2-2c-1.12,3.75-1.12,3.75,0,6c3.04,0,3.51,.34,6,2c.67-1.33,1.33-2.67,2-4c.67,0,1.33,0,2,0c.33,2.67,.67,5.33,1,8c3.1,0,4.9,1.3,8,2c0-2,0-4,0-6c3.59-.16,5.32-.68,8,2c2.13-1.07,3.37-2.29,5-4c.69,2.49,1,4.38,1,7c12.8,1.78,20.75,11.75,29,20c1.95-1.95,2.85-3.53,4-6c2.49,1.61,6.36,4.64,9,2c.33,1,.67,2,1,3c1.67,.33,3.33,.67,5,1c.46-3.39,3-8.22,3-11Z"/>
</g>
<g fill="#DBC09B">
<path d="M428,537c-13.7-5.33-31.26-16.25-45-19c-6.35,5.77-22,24.3-22,33v1c1.12,1.13,1.12,1.13,6,2c2.25-5.79,4.36-12.81,9-17c-2.12,6.68-6.49,12.79-4,20c5.23-5.23,6.26-5.79,10-13c-1-1-1-1-2-4c1-.33,2-.67,3-1c0-4.73,5.28-12.51,10-13c-2.97,5.09-6.3,9.24-8,15c8.55,3.7,10.09,1.07,13-7c1,0,2,0,3,0c-2.24,4.15-4,8.24-4,13c2,.67,4,1.33,6,2c4.08-4.08,4.29-12,11-12c-3.36,3.36-6.27,8.36-7,13c3,2,3,2,6,3c6.18-6.18,8-10.45,15-16Z"/>
<path d="M476,557c-14.73-7.36-30.74-12.72-46-19c-.67,.67-1.33,1.33-2,2c.33,.33,.67,.67,1,1c-5.87,4.13-10.45,8.76-12,16c3.31,1.13,6.59,2.21,10,3c.9-5.84,3.84-6.27,7-11c.67,.33,1.33,.67,2,1c-2.53,7.58-7.56,11.93-10,21c12.98-2.16,12.12-12.79,22-20c.33,.33,.67,.67,1,1c-2.42,5.39-6.89,8.27-9,14c2.49,.83,4.66,1.79,7,3c1.54-4.62,4.58-10.15,9-12c-1.84,5.08-5.24,8.52-6,14c2,.67,4,1.33,6,2c2.06-6,6.59-13.09,12-16c4.79,4.79,4.24,0,8,0Z"/>
</g>
<path d="M670,553c-3.18-6.36-4.19-8.45-10-13c-11.16,11.16-23.49,23.27-36,33c-.67-.67-1.33-1.33-2-2c0,4.86-10.16,17-15,17c4.06,3.86,7.23,8.14,10,13c10.24-3.41,37.68-39.13,53-48Z" fill="#D5B992"/>
<g fill="#9F8765">
<path d="M752,609c5.3-15.89,1.25-50.24-17-57l-6,5c18.41,14.47,22.79,32.83,17,56c.33,0,.67,0,1,0c3-2,3-2,5-4Z"/>
<path d="M677,590c.11-10.96,1.43-28.57-7-37c-15.32,8.87-42.76,44.59-53,48c1.99,5.5,8,13.24,8,19c.99,6.2,1.22,14.21,3,20c14.33-18.12,34.67-31.88,49-50Z"/>
</g>
<g fill="#D5B992">
<path d="M280,583c-7.06,0-20.28-11.79-29-13c0,4.02-.53,8.01-1,12c4.25,2.03,6.39,5.54,11,4c3.33,3.33,9.16,5.74,14,8c1.99-3.71,2.64-7.47,5-11Z"/>
<path d="M314,599c-8.89-5.92-22.79-11.68-33-15c2,2,2,2,2,5c-3.92,1.96-4.41,5.04-3,9c11.44,1.59,34,24.74,34,1Z"/>
</g>
<path d="M560,594l-2-2c-1.78,.59-30.34,34.91-7,36c2.3-11.83,3.07-20.07,12-29c-1.65-1.65-2-1.58-2-4c-1.67,.33-3.33,.67-5,1c.67-1,1.33-2,2-3c.67,.33,1.33,.67,2,1Z" fill="#DBC09B"/>
<path d="M366,625c-11.87-7.91-35.33-19.96-49-24c-2.5,4.28-2.18,8.24-2,13c2.88,1.06,4.8,1.8,7,4c-.33,1-.67,2-1,3c.33,.33,.67,.67,1,1c1.21-1.21,1.26-1,3-1c0-.67,0-1.33,0-2c.67,.33,1.33,.67,2,1c0,2,0,4,0,6c1.33,.33,2.67,.67,4,1c.33-.67,.67-1.33,1-2c.67,1,1.33,2,2,3c.33-1.33,.67-2.67,1-4c9.92,1.29,16.7,8.17,26,11c2.88-2.88,3.73-6.18,5-10Z" fill="#D5B992"/>
<path d="M683,667c2.14-15.87,5.89-38-8-50c-9.17,9.17-49.51,42.64-52.31,51.92c-4.52,14.99-1.12,39.2-3.69,56.08c19.65-19.65,44.13-37.37,64-58Z" fill="#9F8765"/>
<g fill="#675D52">
<path d="M339,672c-9.38-7.94-65.45-34.29-78-38c-8.99,8.99-11.24,28.76-11,42c3.13,.49,4.7,.7,7,3c1.35-4.54,.26-7.89,3-12c1.32,4.96,1.09,9.91,1,15c2.88,1.06,4.8,1.8,7,4c1-.67,2-1.33,3-2c.96,4.8,3.82,8,9,8c-.1-5.87-.26-15.12,3-20c4.03,13.01-7.14,20.21,9,28c-.23-9.7-.08-26.92,7-34c0,10.77-8.73,25.91-2,36c.33-.67,.67-1.33,1-2c1.67,.67,3.33,1.33,5,2c1.62-5.07-.09-9.37,3-14c-.11,5.49,1.15,10.57,1,16c1,.33,2,.67,3,1c.67-.67,1.33-1.33,2-2c.33,.67,.67,1.33,1,2c1.86-3.13,2.2-5.37,2-9c2.75,2.75,2.14,5.35,2,9c4.75,2.38,1.6,6.42,9,7c-.18-10.3,2.7-34.85,13-40Z"/>
<path d="M387,730c1.02-1.02,2.01-2.01,3-3c.68,1.02,1.34,2.01,2,3c1.36-.34,2.68-.67,4-1c1.49-10.46,13.92-25.51,0-28c-3.43,10.28-9.23,17.04-9,29Z"/>
</g>
<g fill="#D5B992">
<path d="M479,679c-13.89-6.69-29.41-16.69-44-21c-.79,3.41-1.87,6.69-3,10c14.36,4.57,11.65,7.96,16,21c1.67,.33,3.33,.67,5,1c0-4.33,0-8.67,0-13c3.7,1.85,3.45,9,4,13c3.38,.87,4.55,.55,7,3c1.57-1.57,1.05-3.94,1-6c5.11-2.01,6.39,1.46,11,3c.22-.22,3-10.23,3-11Z"/>
<path d="M518,696c-10.71,0-27.05-12.76-38-16c1.22,4.86-.23,9.08,1,14c3.66,.59,3.85,.54,5,4c3.38-1.21,4.99-.83,8,1c.43-1.89,.58-3.58,2-5c0,2,0,4,0,6c4.84,1.58,10.3,1.91,12,7c5.95,0,8.92-.58,15,1c-1.67-4.54-4.23-7.1-5-12Z"/>
<path d="M536,698c0,.33,0,.67,0,1c-3,0-6,0-9,0c-2.58,10.88,.91,13.72,4,23c5.67,0,11.33,0,17,0c-4-1-4-1-6-3c1-.33,2-.67,3-1c0-1.67,0-3.33,0-5c1,1,1,1,4,2c1.52-3.04,4.9-3.85,7-7c-2.07-2.07-2-2.07-2-5c7.8,0,11.03-1.45,13-9c-9.68,.65-10.64-2.64-17-9c-.87,4.87-.87,4.87-2,6c-3.63,4.03-6.96,5.32-12,7Z"/>
</g>
<g fill="#675D52">
<path d="M439,773c4.11-2.74,7.15-34.59,12-43c-1.81-1.81-6.08-5.74-9-5c-4.17,1.06-10.97,31.03-10.38,35.36c.51,3.74,4.82,10.08,7.38,12.64Z"/>
<path d="M467,737c-4.8-1.77-7.99-4.47-13-6c-2.85,13.3-20.32,39.72,0,44c3.68-13.2,2.52-27.52,13-38Z"/>
<path d="M505,756c.34,.34,.67,.67,1,1c-1.8,1.8-.47,4.82-1.45,7.35C497.84,781.65,499,784.97,502,803c1.7,.34,3.35,.67,5,1c-.35-17.03,7.28-28.75,10-44c-4.63-.93-6.9-3.33-12-4Z"/>
</g>
</svg>
