<svg version="1.1" xmlns="http://www.w3.org/2000/svg" width="1024" height="1024">

<path d="M454,208c-6.79-6.34-9.49-14.73-13-23c-23.97-56.43,25.75-112.49,83-106c13.43,1.52,29.11,7.11,39,17c4.41,3.43,6.33,7.33,10,11c9.11,9.11,13.75,23.66,16,36c4.53,24.88-3.14,48.28-17.9,68.28c-8.04,10.9-20.8,18.22-20.1,33.72c-7.36,2.57-14.22,4-22,4c0-13.67,0-27.33,0-41c2.32-.77,5.28-1.28,7-3c13.42-6.9,17.98-20.57,23.19-33.25c21.99-53.55-66.05-93.19-89.84-33.64c-4.47,11.19-6.2,24.36-2.44,36.14c4.01,12.57,11.78,16.52,17.58,26.85c2.77,4.94,1.68,38.42,1.51,45.9c-2.72,.15-6.9,.1-9-2c-3.11-3.12-3.64-12.84-6.23-17.35C466.61,220.43,457.72,216.3,454,208Zm28,193c0-3,0-6,0-9c21.62-.6,40.71,3.18,63,0c0,65.33,0,130.67,0,196c-.29,66.89,3.02,100.02,52,149c73.47,54.42,168.95,25.24,179-71c0-18.79-2.35-38.57-2-57c-9.09,4.38-16.25,12.12-26,15c0-10.86,6.44-23.21,8.32-33.98c4.52-25.9,5.82-50.76,5.68-77.02c0-3,0-6,0-9c12.83,12.83,35.38,74.34,37,93c.92,10.62,4.58,21.99,5.86,32.75c5.08,42.87-1.9,85.52-23.77,122.68C740.64,821.15,649.03,823.33,588,785c-11.65-7.32-26.49-16.75-35.21-27.54C547.15,750.49,541.5,732,538,723c0,14.94,7.9,25.63,8.12,40.23c.29,19.1-19.74,108.39-32.12,120.77c-.33-.33-.67-.67-1-1l-1-4c-13.08-19.63-30.76-92.54-30.14-116.6c.39-15.09,10.41-28.32,10.14-45.4c-10.01,10.01-9.85,31.47-18.77,41.51c-36.81,41.46-96.94,57.87-149.73,46.93c-9.33-1.94-23.15-5.22-30.5-11.44c-10.66,0-44.62-35.85-48-46c-4.62-9.25-9.72-16.92-13-27c-27.2-47.15,1.07-177.59,34-218c0,1.67,0,3.33,0,5c-.11,26.99-.08,52.43,5,79c2.23,11.66,10,27.02,10,38c-9.79-3.53-16.86-11.73-26-16c-7.08,49.58-3.73,117.52,49,142c0,.33,0,.67,0,1c33.47,16.74,59.71,13.72,94,3c14.15-4.42,26.93-14.1,38-24c56.07-50.15,46.13-126.98,46.08-195.26c-.04-44.91-.04-89.83-.08-134.74ZM274,475c-23.42,40.99-45.16,75.91-55.43,122.74C196.03,700.45,240.3,825.37,364.15,818.01c31.93-1.9,61.58-13.27,87.72-31.14c6.84-4.67,15.91-15.46,23.13-17.87c2.73,20.26,24.02,127.67,40,133c5.71-15.82,14.63-30.76,19.84-47.2c6.36-20.06,8.57-41.16,14.16-60.8c2.1-7.38,4.22-17.17,4-25c26.52,21.06,50.82,38.16,84.27,46.28c99.99,24.28,174.97-53.98,177.86-149.59c1.45-48.02-11.4-104.61-34.7-146.32C771.97,504.25,761.77,490.04,753,475c-3.25,9.76,.42,55.49,.11,69.48c-.61,27.88-8.13,55.08-16.17,81.27c-1.26,4.11-3.43,8.07-1.94,12.25c11.13-3.62,20.97-7.98,31-14c9.55,15.27-2.01,63.18-9,79c-17.86,40.4-58.06,59.72-101,52c-26.48-4.76-47.97-17.5-65.68-36.45c-46.61-49.89-37.44-118.46-37.4-182.39c.03-48.38,.04-96.77,.08-145.16c14.34-7.17,25.61-13.46,18-32c13.02-13.02,.99-19.5,2.21-29.29c1.37-10.97,9.76-17.01-.21-28.71c6.8-13.61,4.64-15.1,0-28c-3.32-9.23,18.17-20.87-11-36c9.14-17.66,25.38-28.42,31.85-49.2C615.37,118.75,569.69,68.02,501,69c0,.34,0,.67,0,1c-10.03-.46-24.77,6.44-33,12c-37.1,25.03-50.69,67.25-34.92,109.47c6.93,18.57,24.27,29.05,31.92,45.53c-13.97,4.66-23.61,19.39-11,32c-6.93,14.94-6.22,12.9-1,28c1.22,3.53-4.03,7.76-4.33,11.44c-.69,8.5,2.94,11.79,5.33,18.56c1.03,2.92-3.85,6.19-4.1,9c-.75,8.41,5.3,15.46,5.1,21c-.62,17.18-3.23,28.86,19,33c.04,47.9,.06,95.81,.09,143.71c.03,49.42,4.94,105.71-14.68,151.93c-40.6,95.68-186.1,95.73-198-18.14c-1.41-13.47-3.47-30.29,.59-43.5c6.77,6.77,23.42,13,33,13c-10.73-33.73-19.66-63.35-21.13-99.28c-.68-16.79,4.25-48.35,.13-62.72ZM542,188c-2.11-18.55-28.53-26.62-43.22-17.25c-8.27,5.27-8.02,12.49-13.78,18.25c-44.93-54.23,48.52-110.55,66.8-38.8c3.24,12.73-.39,28.39-9.8,37.8Zm-50,29c-11.19-34.09,27.3-62.4,43-31c-7.5-.85-10.18,2.83-11,10c-9.73-.44-29.12,12.35-32,21Zm27-15c1.32,.33,2.64,.66,4,1c0,15.33,0,30.67,0,46c-5.95,.06-23.33,2.03-28.03-.72c-3.27-1.92-2.75-5.93-2.89-9.45c-.75-18.01,10.33-29.67,26.92-35.83c0-.33,0-.66,0-1Zm42,43c9.45,1.02,12.24,14.44,6.78,21.14c-13.9,17.09-108.3,17.27-111.53-7.58c-.49-3.78-.55-12.28,4.75-13.56c1.26-.3,15.19,6.47,18.47,7.2c16.23,3.66,71.76,9.09,81.53-7.2Zm-33,61c-14.96,2.03-92.07,2.11-70-31c7.07,.96,13.75,4.7,20.62,5.89c22.28,3.85,68.52,7.03,88.38-4.89c2.29,2.68,3.59,5.73,3.97,9.23c1.69,15.49-23.34,21.08-35.53,20.1c-5.94-.48-7.5-6.64-14.44-4.33c2.3,1.74,4.6,3.4,7,5Zm18,25c.66,.66,1.32,1.32,2,2c-18.72-.36-87.09,9.88-91.89-15.82c-.92-4.9-.86-9.05,1.89-13.18c43.01,7.17,64.55,15.14,109,1c14.51,14.51-6.19,29.1-21,26Zm22,4c1.1,5.67,3.63,11.92-.31,17.19C555.3,368.71,434,370.5,459,333c24.64,3.36,45.05,8.79,70.76,8.13C542.71,340.8,556.01,335,568,335Zm-3,28c8.44,35.86-90.38,28.22-102,16c-3.33-3.5-4.1-13.8-2-18c44.48,7.41,59.35,8.09,104,2Z" fill="#35302B"/>
<path d="M563,96c-9.89-9.89-25.57-15.48-39-17c-57.25-6.49-106.97,49.57-83,106c3.51,8.27,6.21,16.66,13,23c-20.82-41.64-12.55-87.02,28-113c7.2-4.61,19.13-9.69,27.67-10.24c11.58-.75,24.83-.4,35.85,3.38C550.13,89.72,559.02,96,563,96Z" fill="#828487"/>
<path d="M573,107c-3.67-3.67-5.59-7.57-10-11c-3.98,0-12.87-6.28-17.48-7.86c-11.02-3.78-24.27-4.13-35.85-3.38C501.13,85.31,489.2,90.39,482,95c-40.55,25.98-48.82,71.36-28,113c3.72,8.3,12.61,12.43,16.77,19.65c2.59,4.51,3.12,14.23,6.23,17.35c2.1,2.1,6.28,2.15,9,2c.17-7.48,1.26-40.96-1.51-45.9c-5.8-10.33-13.57-14.28-17.58-26.85c-3.76-11.78-2.03-24.95,2.44-36.14c23.79-59.55,111.83-19.91,89.84,33.64C553.98,184.43,549.42,198.1,536,205c-.07,4.6-1.41,14.8,3,17c42.03-32.69,50.38-64.7,34-115Z" fill="#717376"/>
<g fill="#545658">
<path d="M536,205c-1.72,1.72-4.68,2.23-7,3c0,13.67,0,27.33,0,41c7.78,0,14.64-1.43,22-4c-.7-15.5,12.06-22.82,20.1-33.72c14.76-20,22.43-43.4,17.9-68.28c-2.25-12.34-6.89-26.89-16-36c16.38,50.3,8.03,82.31-34,115c-4.41-2.2-3.07-12.4-3-17Z"/>
<path d="M492,217c2.88-8.65,22.27-21.44,32-21c.82-7.17,3.5-10.85,11-10c-15.7-31.4-54.19-3.09-43,31Z"/>
<path d="M519,202c0,.34,0,.67,0,1c-16.59,6.16-27.67,17.82-26.92,35.83c.14,3.52-.38,7.53,2.89,9.45c4.7,2.75,22.08,.78,28.03,.72c0-15.33,0-30.67,0-46c-1.36-.34-2.68-.67-4-1Z"/>
<path d="M561,245c-9.77,16.29-65.3,10.86-81.53,7.2c-3.28-.73-17.21-7.5-18.47-7.2c-5.3,1.28-5.24,9.78-4.75,13.56c3.23,24.85,97.63,24.67,111.53,7.58c5.46-6.7,2.67-20.12-6.78-21.14Z"/>
<path d="M528,306c-2.4-1.6-4.7-3.26-7-5c6.94-2.31,8.5,3.85,14.44,4.33c12.19,.98,37.22-4.61,35.53-20.1c-.38-3.5-1.68-6.55-3.97-9.23c-19.86,11.92-66.1,8.74-88.38,4.89c-6.87-1.19-13.55-4.93-20.62-5.89c-22.07,33.11,55.04,33.03,70,31Z"/>
<path d="M546,331c14.81,3.1,35.51-11.49,21-26c-44.45,14.14-65.99,6.17-109-1c-2.75,4.13-2.81,8.28-1.89,13.18c4.8,25.7,73.17,15.46,91.89,15.82c-.68-.68-1.34-1.34-2-2Z"/>
<path d="M568,335c-11.99,0-25.29,5.8-38.24,6.13c-25.71,.66-46.12-4.77-70.76-8.13c-25,37.5,96.3,35.71,108.69,19.19c3.94-5.27,1.41-11.52,.31-17.19Z"/>
<path d="M565,363c-44.65,6.09-59.52,5.41-104-2c-2.1,4.2-1.33,14.5,2,18c11.62,12.22,110.44,19.86,102-16Z"/>
<path d="M545,588c0-65.33,0-130.67,0-196c-22.29,3.18-41.38-.6-63,0c0,3,0,6,0,9c3.72,.51,6.73,1.12,10,3c7.49,1.01,14.38,3,22,3c0,158.67,0,317.33,0,476c-.33,0-.67,0-1,0c.33,.33,.67,.67,1,1c12.38-12.38,32.41-101.67,32.12-120.77C545.9,748.63,538,737.94,538,723c3.5,9,9.15,27.49,14.79,34.46c8.72,10.79,23.56,20.22,35.21,27.54c61.03,38.33,152.64,36.15,193.09-32.57c21.87-37.16,28.85-79.81,23.77-122.68c-1.28-10.76-4.94-22.13-5.86-32.75c-1.62-18.66-24.17-80.17-37-93c0,3,0,6,0,9c9.58,17.25,13.12,42.67,17.99,61.65c21.92,85.38,16.65,218.84-102.07,218.48c-18.47-.05-58.58-4.79-71.92-18.13c-4.93-4.93-16.13-9.09-22.2-13.34c-10.74-7.53-24.64-21.3-31.55-32.47C523.36,682.49,533.93,539.45,534,481c.67-.33,1.33-.67,2-1c0,1,0,2,0,3c2.33,0,4.67,0,7,0c-.16,19.34-2.36,91.34,2,105Z"/>
<path d="M512,879c.58-12.75-5.46-31.1-7.44-44.42C498.44,793.51,491.31,748.27,492,707c-3.76,3.4-5.91,8.03-9,12c-21.6,48.59-93.31,74.28-142.85,71.08C324.52,789.07,309.87,781,295,781c0-.67,0-1.33,0-2c-2.63,2.63-5.91,5.19-4,9c1.33-.33,2.67-.67,4-1c-.33,2.33-.67,4.67-1,7c-.33,0-.67,0-1,0c7.35,6.22,21.17,9.5,30.5,11.44c52.79,10.94,112.92-5.47,149.73-46.93c8.92-10.04,8.76-31.5,18.77-41.51c.27,17.08-9.75,30.31-10.14,45.4c-.62,24.06,17.06,96.97,30.14,116.6Z"/>
</g>
<path d="M542,188c9.41-9.41,13.04-25.07,9.8-37.8C533.52,78.45,440.07,134.77,485,189c5.76-5.76,5.51-12.98,13.78-18.25c14.69-9.37,41.11-1.3,43.22,17.25Z" fill="#FEFEFE"/>
<path d="M492,404c-3.27-1.88-6.28-2.49-10-3c.04,44.91,.04,89.83,.08,134.74c.05,68.28,9.99,145.11-46.08,195.26c-11.07,9.9-23.85,19.58-38,24c-34.29,10.72-60.53,13.74-94-3c3.91,3.91,10.86,6.39,16,8c37.99,11.88,69.05,15.97,105-8c24.52-16.34,44.9-39.2,55.98-66.61c16.09-39.8,11.13-89.64,11.11-132.08c-.02-49.77-.05-99.54-.09-149.31Z" fill="#BFC0C1"/>
<path d="M513,883c.33,0,.67,0,1,0c0-158.67,0-317.33,0-476c-7.62,0-14.51-1.99-22-3c.04,49.77,.07,99.54,.09,149.31c.02,42.44,4.98,92.28-11.11,132.08C469.9,712.8,449.52,735.66,425,752c3.66,0,6.75-2.45,11-3c.33,1,.67,2,1,3c1.4-2.61,2.38-5.1,3-8c2,0,4,0,6,0c1.28-5.11,.56-7.89,6-10c1,1,1,1,3,2c0-1.91,.39-2.61-1-4c3.69-5.53,15.34-3.5,22-5c-.67-1.33-1.33-2.67-2-4c1-1,2-2,3-3c.67,.67,1.33,1.33,2,2c.33-1,.67-2,1-3c1,0,2,0,3,0c3.09-3.97,5.24-8.6,9-12c-.69,41.27,6.44,86.51,12.56,127.58c1.98,13.32,8.02,31.67,7.44,44.42l1,4Z" fill="#828487"/>
<path d="M597,737c-48.98-48.98-52.29-82.11-52-149c-4.36-13.66-2.16-85.66-2-105c-2.33,0-4.67,0-7,0c0-1,0-2,0-3c-.67,.33-1.33,.67-2,1c-.07,58.45-10.64,201.49,18.25,248.19c6.91,11.17,20.81,24.94,31.55,32.47c6.07,4.25,17.27,8.41,22.2,13.34c-1.4-9.13-9.49-4.34-10-12c.67,.67,1.33,1.33,2,2c0-1,0-2,0-3c-1,0-2,0-3,0c-.8-14.05,1.84-11,13-11c0,3.4,.53,3.84,3,6c-.67,1-1.33,2-2,3c2.27-.44,5.31-1.69,7,0c2.5-1.25,4.24-1,7-1c-9.72-5.67-16.73-14.7-26-20c0-.67,0-1.33,0-2Z" fill="#717376"/>
<path d="M266,508c0-1.67,0-3.33,0-5c-32.93,40.41-61.2,170.85-34,218c.67,0,1.33,0,2,0c.33,.67,.67,1.33,1,2c.67-1.33,1.33-2.67,2-4c.67,.67,1.33,1.33,2,2c-.33,.33-.67,.67-1,1c1,1,2,2,3,3c0-3.71,.72-5.28-2-8c.67-.67,1.33-1.33,2-2c-19.17-57.5-2.66-116.07,13.04-171.42c3.22-11.33,6.35-25.15,11.96-35.58Z" fill="#BFC0C1"/>
<path d="M304,752c0-.33,0-.67,0-1c-52.73-24.48-56.08-92.42-49-142c9.14,4.27,16.21,12.47,26,16c0-10.98-7.77-26.34-10-38c-5.08-26.57-5.11-52.01-5-79c-5.61,10.43-8.74,24.25-11.96,35.58C238.34,598.93,221.83,657.5,241,715c10.87,20.18,20.99,46.13,43,56c-11.97,0-29.74-15.59-39-23c3.38,10.15,37.34,46,48,46c.33,0,.67,0,1,0c.33-2.33,.67-4.67,1-7c-1.33,.33-2.67,.67-4,1c-1.91-3.81,1.37-6.37,4-9c0,.67,0,1.33,0,2c14.87,0,29.52,8.07,45.15,9.08C389.69,793.28,461.4,767.59,483,719c-1,0-2,0-3,0c-.33,1-.67,2-1,3c-.67-.67-1.33-1.33-2-2c-1,1-2,2-3,3c.67,1.33,1.33,2.67,2,4c-6.66,1.5-18.31-.53-22,5c1.39,1.39,1,2.09,1,4c-2-1-2-1-3-2c-5.44,2.11-4.72,4.89-6,10c-2,0-4,0-6,0c-.62,2.9-1.6,5.39-3,8c-.33-1-.67-2-1-3c-4.25,.55-7.34,3-11,3c-35.95,23.97-67.01,19.88-105,8c-5.14-1.61-12.09-4.09-16-8Z" fill="#717376"/>
<path d="M606,775c13.34,13.34,53.45,18.08,71.92,18.13c118.72,.36,123.99-133.1,102.07-218.48c-4.87-18.98-8.41-44.4-17.99-61.65c.14,26.26-1.16,51.12-5.68,77.02C754.44,600.79,748,613.14,748,624c9.75-2.88,16.91-10.62,26-15c-.35,18.43,2,38.21,2,57c3.52,10.57-1.7,28.12-6,38c-28.1,64.54-83.59,84.44-147,55c-2.76,0-4.5-.25-7,1c-1.69-1.69-4.73-.44-7,0c.67-1,1.33-2,2-3c-2.47-2.16-3-2.6-3-6c-11.16,0-13.8-3.05-13,11c1,0,2,0,3,0c0,1,0,2,0,3c-.67-.67-1.33-1.33-2-2c.51,7.66,8.6,2.87,10,12Z" fill="#828487"/>
<path d="M623,759c63.41,29.44,118.9,9.54,147-55c4.3-9.88,9.52-27.43,6-38c-10.05,96.24-105.53,125.42-179,71c0,.67,0,1.33,0,2c9.27,5.3,16.28,14.33,26,20Z" fill="#BFC0C1"/>
<path d="M245,748c9.26,7.41,27.03,23,39,23c-22.01-9.87-32.13-35.82-43-56c-.67,.67-1.33,1.33-2,2c2.72,2.72,2,4.29,2,8c-1-1-2-2-3-3c.33-.33,.67-.67,1-1c-.67-.67-1.33-1.33-2-2c-.67,1.33-1.33,2.67-2,4c-.33-.67-.67-1.33-1-2c-.67,0-1.33,0-2,0c3.28,10.08,8.38,17.75,13,27Z" fill="#828487"/>
</svg>
